<?xml version="1.0" encoding="utf-8"?>
<!-- Generator: Adobe Illustrator 28.0.0, SVG Export Plug-In . SVG Version: 6.00 Build 0)  -->
<svg version="1.1" id="Layer_1" xmlns="http://www.w3.org/2000/svg" xmlns:xlink="http://www.w3.org/1999/xlink" x="0px" y="0px"
	 viewBox="0 0 100 100" enable-background="new 0 0 100 100" xml:space="preserve">
<path fill="none" stroke="#ffffff" stroke-width="3.5" stroke-linecap="round" stroke-linejoin="round" stroke-miterlimit="10" d="
	M74,29.4h3.9c2.8,0,5,2.2,5,5v39.1c0,2.8-2.2,5-5,5H22.1c-2.8,0-5-2.2-5-5V34.4c0-2.8,2.2-5,5-5H26"/>
<g>
	
		<circle fill="none" stroke="#ffffff" stroke-width="3.5" stroke-linecap="round" stroke-linejoin="round" stroke-miterlimit="10" cx="50" cy="27.7" r="17.8"/>
	
		<path fill="#CCCCCC" stroke="#ffffff" stroke-width="3.5" stroke-linecap="round" stroke-linejoin="round" stroke-miterlimit="10" d="
		M50,45.5c6.3,0,11.8-3.3,15-8.2c-1.6-6.8-7.7-11.9-15-11.9s-13.4,5.1-15,11.9C38.2,42.3,43.7,45.5,50,45.5z"/>
	
		<circle fill="#CCCCCC" stroke="#ffffff" stroke-width="3.5" stroke-linecap="round" stroke-linejoin="round" stroke-miterlimit="10" cx="50" cy="20" r="5.4"/>
	
		<circle fill="none" stroke="#ffffff" stroke-width="3.5" stroke-linecap="round" stroke-linejoin="round" stroke-miterlimit="10" cx="50" cy="27.7" r="17.8"/>
</g>
<g>
	
		<rect x="28.6" y="54.5" fill="none" stroke="#ffffff" stroke-width="3.5" stroke-linecap="round" stroke-linejoin="round" stroke-miterlimit="10" width="42.7" height="11.7"/>
	
		<line fill="none" stroke="#ffffff" stroke-width="3.5" stroke-linecap="round" stroke-linejoin="round" stroke-miterlimit="10" x1="35.3" y1="60.5" x2="37.7" y2="60.5"/>
	
		<line fill="none" stroke="#ffffff" stroke-width="3.5" stroke-linecap="round" stroke-linejoin="round" stroke-miterlimit="10" x1="44.3" y1="60.5" x2="46.7" y2="60.5"/>
	
		<line fill="none" stroke="#ffffff" stroke-width="3.5" stroke-linecap="round" stroke-linejoin="round" stroke-miterlimit="10" x1="53.3" y1="60.5" x2="55.7" y2="60.5"/>
	
		<line fill="none" stroke="#ffffff" stroke-width="3.5" stroke-linecap="round" stroke-linejoin="round" stroke-miterlimit="10" x1="62.3" y1="60.5" x2="64.7" y2="60.5"/>
</g>
</svg>
