<svg width="24" height="24" viewBox="0 0 24 24" fill="none" xmlns="http://www.w3.org/2000/svg">
<path d="M12.5833 1C8.26641 1 4 3.87794 4 8.53565C4 11.4977 5.66617 13.1807 6.67598 13.1807C7.09252 13.1807 7.33235 12.0195 7.33235 11.6913C7.33235 11.3 6.33517 10.4669 6.33517 8.83859C6.33517 5.45575 8.91016 3.05747 12.2425 3.05747C15.1078 3.05747 17.2284 4.68578 17.2284 7.67732C17.2284 9.9115 16.3322 14.1022 13.429 14.1022C12.3814 14.1022 11.4852 13.3448 11.4852 12.2593C11.4852 10.6689 12.5959 9.12891 12.5959 7.48798C12.5959 4.70261 8.64509 5.20751 8.64509 8.57352C8.64509 9.28038 8.73345 10.063 9.04901 10.7067C8.46837 13.206 7.28186 16.9296 7.28186 19.5046C7.28186 20.2998 7.39546 21.0824 7.47119 21.8777C7.61425 22.0375 7.54272 22.0207 7.76151 21.9408C9.8821 19.0376 9.80636 18.4696 10.7657 14.6702C11.2832 15.6548 12.6212 16.1849 13.6815 16.1849C18.1499 16.1849 20.1568 11.8301 20.1568 7.90452C20.1568 3.72647 16.5468 1 12.5833 1Z" fill="black"/>
</svg>
