<?xml version="1.0" encoding="UTF-8"?>
<svg version="1.1" xmlns="http://www.w3.org/2000/svg" width="679" height="401">
<path d="M0 0 C0.84422065 -0.00538554 1.68844131 -0.01077108 2.55824441 -0.01631981 C5.3739561 -0.03057404 8.18919599 -0.0235019 11.00492859 -0.01637268 C13.02912269 -0.02207765 15.05331357 -0.02904239 17.07749939 -0.03717041 C22.56729709 -0.0551049 28.05693497 -0.0539326 33.54675317 -0.04822803 C38.13408945 -0.04513598 42.72139505 -0.05122897 47.30872697 -0.05726677 C58.13440741 -0.07131195 68.96000895 -0.06975132 79.78569031 -0.05836487 C90.94254741 -0.04688916 102.09916397 -0.06095025 113.25598937 -0.08776134 C122.84433504 -0.10993792 132.43260532 -0.11655113 142.02097481 -0.11068493 C147.74340491 -0.10731819 153.46568091 -0.10971151 159.18808937 -0.12693596 C164.57180506 -0.14243362 169.95516539 -0.13841802 175.33886719 -0.11963081 C177.31005474 -0.11595248 179.28126878 -0.11903127 181.25243187 -0.1295166 C203.12312464 -0.23693381 203.12312464 -0.23693381 210.25165272 6.04978275 C217.06665153 13.01865474 217.80664419 21.21507782 217.70756531 30.4853363 C217.70800339 31.56915085 217.70844147 32.65296539 217.70889282 33.7696228 C217.7068131 37.32999574 217.68352 40.88988999 217.65995789 44.45018005 C217.65435905 46.92739098 217.65009031 49.40460524 217.64709473 51.88182068 C217.63566873 58.38543451 217.60622061 64.8888457 217.57298279 71.39237976 C217.5422336 78.03532034 217.52857903 84.6782808 217.51347351 91.3212738 C217.48134899 104.34349541 217.4307605 117.36557693 217.36698914 130.38768005 C218.45497142 130.38307109 219.5429537 130.37846212 220.66390514 130.37371349 C247.11989604 130.26278434 273.57585683 130.18058397 300.03203106 130.12861919 C312.82597804 130.10282236 325.61977153 130.06764333 338.41362 130.01048279 C349.56293441 129.9606934 360.71213767 129.92839981 371.86156017 129.91723758 C377.76678112 129.91071132 383.67168405 129.8953416 389.57680321 129.85902977 C395.13276907 129.82514113 400.68828532 129.81461281 406.24434471 129.82214165 C408.28537945 129.82076392 410.32642893 129.81078925 412.36737442 129.79165268 C415.15126383 129.7668262 417.93344903 129.7727368 420.71737671 129.78640747 C421.93285196 129.76456116 421.93285196 129.76456116 423.17288226 129.74227351 C427.22105356 129.7961199 429.13694339 130.20966109 432.37707233 132.71700764 C434.90594194 136.11100998 434.89071518 138.01790445 434.67948914 142.20018005 C434.61181335 143.94234802 434.61181335 143.94234802 434.54277039 145.7197113 C434.48476257 146.60014099 434.42675476 147.48057068 434.36698914 148.38768005 C435.48670105 148.3719696 436.60641296 148.35625916 437.76005554 148.34007263 C441.93088025 148.28560111 446.10167375 148.25126753 450.27275085 148.22288513 C452.07488805 148.20783766 453.87698887 148.18739476 455.67900085 148.16136169 C458.27560934 148.12479984 460.87173188 148.10791324 463.46855164 148.0947113 C464.66890549 148.07148552 464.66890549 148.07148552 465.89350891 148.04779053 C471.75379218 148.04604406 475.85669357 149.22710123 480.41386414 153.1493988 C480.97589539 153.78490662 481.53792664 154.42041443 482.11698914 155.07518005 C482.68933289 155.69779724 483.26167664 156.32041443 483.85136414 156.9618988 C487.42352832 162.67920282 487.66128594 169.21500916 487.62768555 175.76803589 C487.63151109 176.57298101 487.63533664 177.37792613 487.63927811 178.20726353 C487.64953392 180.88392536 487.64563019 183.56036969 487.64164734 186.23704529 C487.64599789 188.16448666 487.65118219 190.09192631 487.65713501 192.0193634 C487.67049851 197.24042141 487.67110668 202.4614069 487.66857171 207.68247867 C487.66750031 212.04627406 487.67238963 216.41005489 487.67717713 220.77384716 C487.68826291 231.07067304 487.68871478 241.36746243 487.68266296 251.66429138 C487.67662164 262.27640251 487.68894038 272.88838111 487.71023303 283.50046962 C487.72786111 292.62257304 487.73384853 301.7446343 487.73059529 310.86675411 C487.7287844 316.3102177 487.73139941 321.75358672 487.74530983 327.19703484 C487.75790332 332.31641758 487.7559296 337.43559395 487.74289894 342.5549736 C487.74053703 344.42983 487.74325399 346.30470098 487.75152206 348.17954063 C487.7620239 350.74671137 487.75386167 353.31319393 487.74121094 355.88034058 C487.74858522 356.61518486 487.75595951 357.35002914 487.76355726 358.10714144 C487.69432934 364.82397933 486.18455415 372.10492406 481.61698914 377.26268005 C481.16839539 377.79635193 480.71980164 378.3300238 480.25761414 378.87986755 C474.75744494 383.26636612 469.35246056 383.81607863 462.58964539 383.6806488 C461.37262184 383.67428154 461.37262184 383.67428154 460.13101196 383.66778564 C457.56348657 383.65111873 454.99677349 383.61349054 452.42948914 383.57518005 C450.67884951 383.56011765 448.92819746 383.54643198 447.17753601 383.53416443 C442.90704522 383.50125474 438.63715445 383.44955731 434.36698914 383.38768005 C434.41339539 384.2797113 434.45980164 385.17174255 434.50761414 386.09080505 C434.54370789 387.2612738 434.57980164 388.43174255 434.61698914 389.63768005 C434.66339539 390.7978363 434.70980164 391.95799255 434.75761414 393.15330505 C434.36698914 396.38768005 434.36698914 396.38768005 432.80274332 398.55854279 C429.57620175 400.98152433 426.88319221 400.94208949 423.00429726 400.8882513 C421.88321137 400.89652255 421.88321137 400.89652255 420.73947728 400.9049609 C418.22074702 400.9186181 415.7029931 400.90362609 413.1842804 400.8888855 C411.36606294 400.89277616 409.54784852 400.89841471 407.72964132 400.9056564 C402.72206081 400.9204631 397.71479308 400.91019889 392.70722246 400.89591968 C387.31106522 400.88484317 381.91495307 400.89674153 376.51879883 400.90576172 C365.94273478 400.91971945 355.36678985 400.91211904 344.79073144 400.89708614 C332.48120592 400.8802533 320.1717103 400.88343291 307.86217682 400.88718022 C285.9011917 400.89306357 263.94026385 400.87886927 241.97929382 400.85423279 C220.65797171 400.83031648 199.33675976 400.82322565 178.01542664 400.83372498 C154.81439646 400.84512941 131.61340173 400.84706966 108.41237199 400.83262688 C105.93916917 400.831101 103.46596635 400.82958064 100.99276352 400.82806587 C99.77581512 400.82730806 98.55886671 400.82655024 97.30504108 400.82576947 C88.72019218 400.82102251 80.13535907 400.82288104 71.55051041 400.82713127 C61.08999948 400.83205359 50.629561 400.82609314 40.16906668 400.80623697 C34.82965819 400.79635213 29.49036009 400.7912727 24.15094566 400.79912949 C19.26559067 400.80617113 14.38045873 400.79941716 9.49513321 400.78152586 C7.72531003 400.77747146 5.95546661 400.77849778 4.1856509 400.78504472 C1.78395349 400.79317049 -0.6169879 400.78291286 -3.0186367 400.76799679 C-3.70924757 400.77473444 -4.39985844 400.78147209 -5.11139691 400.78841391 C-11.83635879 400.70738437 -16.81873136 397.94857643 -21.63301086 393.38768005 C-25.58383225 387.71334599 -26.75610977 383.06831667 -26.76723194 376.25431633 C-26.77168979 374.98804653 -26.77614763 373.72177673 -26.78074056 372.41713512 C-26.78065126 371.00911322 -26.78046142 369.60109133 -26.78018188 368.19306946 C-26.7834814 366.69944066 -26.78720715 365.20581275 -26.79132336 363.71218598 C-26.8013415 359.60175687 -26.80505986 355.49134236 -26.80771267 351.38090277 C-26.81161627 346.94992293 -26.82119456 342.51895464 -26.82992554 338.08798218 C-26.84968823 327.38428276 -26.85975584 316.68058239 -26.86865333 305.97686929 C-26.87303649 300.93640817 -26.87840322 295.89594811 -26.8836422 290.85548782 C-26.90065417 274.1000967 -26.91514844 257.34470622 -26.92239094 240.58930779 C-26.92430083 236.24117405 -26.92622117 231.89304033 -26.92817688 227.54490662 C-26.92866062 226.46419856 -26.92914436 225.38349051 -26.92964276 224.27003373 C-26.93794345 206.76242406 -26.96328118 189.25488271 -26.99575756 171.74730287 C-27.02882764 153.77314933 -27.04683965 135.79903051 -27.05003518 117.82484639 C-27.0522003 107.73280102 -27.06094939 97.64085529 -27.08649635 87.54883957 C-27.10820261 78.95419548 -27.11625411 70.35967522 -27.10652957 61.76500683 C-27.10198469 57.38096649 -27.10388203 52.99718165 -27.12329102 48.61317635 C-27.14092206 44.59601559 -27.13992563 40.57929674 -27.12439372 36.5621313 C-27.12201755 35.11254822 -27.12634175 33.66293454 -27.13822237 32.2133982 C-27.20612793 23.37768733 -27.11372628 14.43267268 -20.94155675 7.48321331 C-14.76013784 1.63740671 -8.25668698 -0.06376522 0 0 Z " fill="#92CC79" transform="translate(191.6330108642578,-0.3876800537109375)"/>
<path d="M0 0 C63.03 0 126.06 0 191 0 C191 98.01 191 196.02 191 297 C127.97 297 64.94 297 0 297 C0 198.99 0 100.98 0 0 Z " fill="#FEFEFE" transform="translate(184,52)"/>
<path d="M0 0 C59.4 0 118.8 0 180 0 C180 33 180 66 180 100 C176.37 101.32 172.74 102.64 169 104 C162.68911638 108.37690315 158.22613076 113.92256107 156.390625 121.5234375 C155.00516605 130.30724722 156.50946234 137.22000824 161 145 C166.20551053 151.0606252 172.18274849 154.4365497 180 156 C180 189 180 222 180 256 C118.62 256 57.24 256 -6 256 C-4.68 253.36 -3.36 250.72 -2 248 C-1.10415061 244.72439061 -0.86938271 241.68567845 -0.84178162 238.29862976 C-0.82709839 236.92522682 -0.82709839 236.92522682 -0.81211853 235.52407837 C-0.80636307 234.53217499 -0.8006076 233.54027161 -0.79467773 232.51831055 C-0.78477814 231.46419479 -0.77487854 230.41007904 -0.76467896 229.32402039 C-0.7331289 225.84494257 -0.70833212 222.36585111 -0.68359375 218.88671875 C-0.66301862 216.47247465 -0.642022 214.05823411 -0.62062073 211.64399719 C-0.56545781 205.29335412 -0.516023 198.94267884 -0.46777344 192.59197998 C-0.41751624 186.110119 -0.36185219 179.62830471 -0.30664062 173.14648438 C-0.19912972 160.43102975 -0.09748541 147.71553524 0 135 C1.65 135 3.3 135 5 135 C5 132.36 5 129.72 5 127 C3.35 127 1.7 127 0 127 C0 118.75 0 110.5 0 102 C1.65 102 3.3 102 5 102 C5 95.4 5 88.8 5 82 C3.35 82 1.7 82 0 82 C0 54.94 0 27.88 0 0 Z " fill="#FEFEFE" transform="translate(409,137)"/>
<path d="M0 0 C0.86222672 -0.00686325 1.72445343 -0.0137265 2.61280823 -0.02079773 C5.46144093 -0.03909157 8.30952432 -0.03522494 11.15820312 -0.02954102 C13.13830749 -0.03410123 15.11841027 -0.03940632 17.09851074 -0.04542542 C21.24786816 -0.05436134 25.39703315 -0.05192748 29.54638672 -0.04199219 C34.86640759 -0.03049571 40.1857654 -0.05072205 45.50569916 -0.07990932 C49.59434229 -0.0982448 53.68282571 -0.09798427 57.77149963 -0.0922718 C59.73312816 -0.0921183 61.69476732 -0.09818679 63.65635681 -0.11056328 C66.39763151 -0.12542324 69.13767052 -0.1148337 71.87890625 -0.09765625 C72.6904567 -0.10732422 73.50200714 -0.11699219 74.33815002 -0.12695312 C77.8840691 -0.08037005 80.03723884 0.12141862 82.9744873 2.18540955 C84.43945312 4.40405273 84.43945312 4.40405273 84.43945312 8.40405273 C85.01912842 8.37786865 85.59880371 8.35168457 86.19604492 8.32470703 C88.83940187 8.22034661 91.48232512 8.15560947 94.12695312 8.09155273 C95.03896484 8.0496582 95.95097656 8.00776367 96.890625 7.96459961 C97.77685547 7.94848633 98.66308594 7.93237305 99.57617188 7.91577148 C100.38787842 7.8895874 101.19958496 7.86340332 102.03588867 7.83642578 C105.71582078 8.70548034 107.16670234 10.44024274 109.43945312 13.40405273 C110.07055664 16.75390625 110.07055664 16.75390625 110.06835938 20.53295898 C110.07077133 21.20447495 110.07318329 21.87599091 110.07566833 22.56785583 C110.07469303 23.98068171 110.06137453 25.3935473 110.03637695 26.80615234 C110.00198652 28.96445708 110.01574645 31.11868017 110.03515625 33.27709961 C110.02825893 34.65407009 110.01858756 36.03103006 110.00585938 37.40795898 C109.99498291 38.65391846 109.98410645 39.89987793 109.97290039 41.18359375 C109.34734598 44.96011009 108.45706901 46.12517934 105.43945312 48.40405273 C104.44945312 48.73405273 103.45945313 49.06405273 102.43945312 49.40405273 C102.43890836 50.28496393 102.43836359 51.16587513 102.43780231 52.07348061 C102.42283624 73.50617028 102.3803964 94.93865189 102.30736256 116.37122536 C102.2727067 126.73587015 102.24735625 137.10038186 102.24389648 147.46508789 C102.24085742 156.49878592 102.22037474 165.53224698 102.17892855 174.56585348 C102.15759161 179.34932318 102.14500152 184.13245593 102.15329933 188.91597366 C102.16083507 193.41903796 102.14503635 197.92141925 102.11139297 202.42435837 C102.10315391 204.07630145 102.10341663 205.72831237 102.11285591 207.38024902 C102.12448173 209.63854977 102.10535847 211.89461341 102.07868958 214.15274048 C102.0759242 215.41559687 102.07315882 216.67845325 102.07030964 217.97957802 C101.23442754 222.51699189 99.65410067 224.14266909 96.43945312 227.40405273 C91.77197811 230.36149272 86.04816694 229.69933887 80.70166016 229.69458008 C79.07883118 229.70465591 79.07883118 229.70465591 77.42321777 229.7149353 C73.84785364 229.73392845 70.27267707 229.73784013 66.69726562 229.73999023 C64.21011274 229.74641697 61.72296062 229.75314524 59.23580933 229.76016235 C54.02226 229.77213823 48.80877696 229.77584282 43.59521484 229.7746582 C38.2448335 229.77358983 32.89474079 229.7876786 27.54443359 229.81567383 C21.08065919 229.84901255 14.61714417 229.86276957 8.15328598 229.86143875 C5.69173593 229.86379766 3.23018317 229.8726374 0.76868057 229.88810349 C-2.67583683 229.90772036 -6.11943229 229.90194154 -9.56396484 229.88989258 C-10.5782254 229.90113159 -11.59248596 229.91237061 -12.63748169 229.9239502 C-18.79496323 229.86927624 -22.64683444 229.24406669 -27.56054688 225.40405273 C-30.35587293 220.87820821 -30.93293712 217.46922202 -30.92131042 212.19070435 C-30.9238737 211.48729034 -30.92643697 210.78387634 -30.92907792 210.05914676 C-30.93399887 207.71440568 -30.91755155 205.370316 -30.90112305 203.02563477 C-30.90027641 201.34004227 -30.90075264 199.65444867 -30.90245056 197.96885681 C-30.9033105 193.4010787 -30.88568499 188.83353743 -30.86472869 184.2658143 C-30.84596163 179.48922333 -30.84421142 174.71262679 -30.84065247 169.93600464 C-30.83133209 160.8944557 -30.80671839 151.85301572 -30.776604 142.81151474 C-30.74305977 132.51654451 -30.72657392 122.22156906 -30.71151769 111.92655778 C-30.68016885 90.75232864 -30.62740846 69.57819756 -30.56054688 48.40405273 C-31.34876831 48.27318268 -32.13698975 48.14231262 -32.94909668 48.00747681 C-35.56054688 47.40405273 -35.56054688 47.40405273 -37.34375 45.74926758 C-39.7000165 41.20787592 -39.07870206 36.05545152 -39.06152344 31.04174805 C-39.06055341 29.04252425 -39.10337388 27.04343691 -39.14648438 25.04467773 C-39.16836237 14.25882513 -39.16836237 14.25882513 -36.67382812 10.51342773 C-32.18518572 7.47218947 -28.53625339 7.73754736 -23.24804688 8.02905273 C-22.31669922 8.05612305 -21.38535156 8.08319336 -20.42578125 8.11108398 C-18.13497816 8.18157023 -15.84897125 8.28001027 -13.56054688 8.40405273 C-13.47804688 7.64092773 -13.39554688 6.87780273 -13.31054688 6.09155273 C-12.56054688 3.40405273 -12.56054688 3.40405273 -11.04870605 1.76133728 C-7.45440635 -0.19934413 -3.99236557 -0.02214554 0 0 Z M-30.56054688 16.40405273 C-30.64792333 18.25774885 -30.66752841 20.11472814 -30.65820312 21.97045898 C-30.65498047 23.09516602 -30.65175781 24.21987305 -30.6484375 25.37866211 C-30.64005859 26.56266602 -30.63167969 27.74666992 -30.62304688 28.96655273 C-30.61853516 30.15442383 -30.61402344 31.34229492 -30.609375 32.56616211 C-30.59754362 35.51217499 -30.58105974 38.45808954 -30.56054688 41.40405273 C-27.26054687 41.40405273 -23.96054687 41.40405273 -20.56054688 41.40405273 C-20.23054688 36.78405273 -19.90054687 32.16405273 -19.56054688 27.40405273 C-17.91054688 27.40405273 -16.26054687 27.40405273 -14.56054688 27.40405273 C-14.06554688 34.33405273 -14.06554688 34.33405273 -13.56054688 41.40405273 C-11.58054687 41.40405273 -9.60054687 41.40405273 -7.56054688 41.40405273 C-7.23054688 36.78405273 -6.90054687 32.16405273 -6.56054688 27.40405273 C-4.91054688 27.40405273 -3.26054688 27.40405273 -1.56054688 27.40405273 C-1.06554688 34.33405273 -1.06554688 34.33405273 -0.56054688 41.40405273 C1.41945313 41.40405273 3.39945313 41.40405273 5.43945312 41.40405273 C5.76945312 36.78405273 6.09945312 32.16405273 6.43945312 27.40405273 C8.08945312 27.40405273 9.73945312 27.40405273 11.43945312 27.40405273 C13.31770204 29.28230165 12.8304771 32.44340549 13.00195312 34.96655273 C13.08574219 36.1640918 13.16953125 37.36163086 13.25585938 38.59545898 C13.31644531 39.52229492 13.37703125 40.44913086 13.43945312 41.40405273 C15.08945312 41.40405273 16.73945312 41.40405273 18.43945312 41.40405273 C18.76945312 37.11405273 19.09945312 32.82405273 19.43945312 28.40405273 C21.41945312 27.74405273 23.39945313 27.08405273 25.43945312 26.40405273 C25.93445313 33.82905273 25.93445313 33.82905273 26.43945312 41.40405273 C28.41945312 41.40405273 30.39945313 41.40405273 32.43945312 41.40405273 C32.76945312 36.78405273 33.09945312 32.16405273 33.43945312 27.40405273 C35.08945313 27.40405273 36.73945312 27.40405273 38.43945312 27.40405273 C38.93445313 34.33405273 38.93445313 34.33405273 39.43945312 41.40405273 C41.41945313 41.40405273 43.39945312 41.40405273 45.43945312 41.40405273 C45.76945312 36.78405273 46.09945312 32.16405273 46.43945312 27.40405273 C48.08945313 27.40405273 49.73945312 27.40405273 51.43945312 27.40405273 C51.93445313 34.33405273 51.93445313 34.33405273 52.43945312 41.40405273 C54.41945313 41.40405273 56.39945312 41.40405273 58.43945312 41.40405273 C58.76945312 36.78405273 59.09945312 32.16405273 59.43945312 27.40405273 C61.08945313 27.40405273 62.73945312 27.40405273 64.43945312 27.40405273 C64.93445313 34.33405273 64.93445313 34.33405273 65.43945312 41.40405273 C67.41945313 41.40405273 69.39945312 41.40405273 71.43945312 41.40405273 C71.76945312 36.45405273 72.09945312 31.50405273 72.43945312 26.40405273 C74.41945313 27.06405273 76.39945312 27.72405273 78.43945312 28.40405273 C78.93445313 34.83905273 78.93445313 34.83905273 79.43945312 41.40405273 C81.08945313 41.40405273 82.73945312 41.40405273 84.43945312 41.40405273 C84.76945312 37.11405273 85.09945312 32.82405273 85.43945312 28.40405273 C87.41945313 27.74405273 89.39945312 27.08405273 91.43945312 26.40405273 C91.93445313 33.82905273 91.93445313 33.82905273 92.43945312 41.40405273 C96.94171236 41.49620131 96.94171236 41.49620131 101.43945312 41.40405273 C102.70126407 40.36612501 102.70126407 40.36612501 102.55297852 38.08740234 C102.5477417 37.08717041 102.54250488 36.08693848 102.53710938 35.05639648 C102.53388672 33.97680664 102.53066406 32.8972168 102.52734375 31.78491211 C102.51896484 30.64860352 102.51058594 29.51229492 102.50195312 28.34155273 C102.49518555 26.63128906 102.49518555 26.63128906 102.48828125 24.88647461 C102.4764506 22.05894922 102.45996722 19.23152633 102.43945312 16.40405273 C99.89427051 15.13146143 98.12056971 15.27819371 95.27037048 15.27706909 C94.17522629 15.27424927 93.08008209 15.27142944 91.95175171 15.26852417 C90.14150009 15.27156052 90.14150009 15.27156052 88.29467773 15.2746582 C87.0280278 15.27290588 85.76137787 15.27115356 84.4563446 15.26934814 C80.97715832 15.26478017 77.49800162 15.26656065 74.0188148 15.26972723 C70.38376328 15.27225355 66.74871434 15.26991258 63.11366272 15.26834106 C57.0096084 15.2665204 50.90556616 15.26892322 44.80151367 15.27368164 C37.73509883 15.2791265 30.66871282 15.27735957 23.60229868 15.27185524 C17.54369164 15.26732408 11.48509331 15.2666735 5.42648512 15.2692939 C1.80415948 15.27085635 -1.81815259 15.27105128 -5.44047737 15.26775742 C-9.4753911 15.2643448 -13.51025473 15.26906846 -17.54516602 15.2746582 C-19.35845398 15.27162186 -19.35845398 15.27162186 -21.20837402 15.26852417 C-22.30069839 15.27134399 -23.39302277 15.27416382 -24.51844788 15.27706909 C-25.47359315 15.27744612 -26.42873842 15.27782314 -27.41282749 15.27821159 C-29.54230031 15.16429431 -29.54230031 15.16429431 -30.56054688 16.40405273 Z " fill="#66B949" transform="translate(38.560546875,171.595947265625)"/>
<path d="M0 0 C13.674375 0.12375 13.674375 0.12375 27.625 0.25 C30.49396973 0.26579102 33.36293945 0.28158203 36.31884766 0.29785156 C38.60060644 0.32722433 40.88234718 0.35805066 43.1640625 0.390625 C44.93172974 0.39231689 44.93172974 0.39231689 46.73510742 0.39404297 C54.39563972 0.52766638 58.16529529 1.16100769 63.62484837 6.62666512 C65.60897486 10.05101229 65.41741357 13.33622413 65.38768005 17.18527222 C65.39306559 18.0175012 65.39845113 18.84973019 65.40399987 19.70717824 C65.4183247 22.50008498 65.41116458 25.29252079 65.40405273 28.08544922 C65.40975398 30.08613467 65.41671728 32.08681686 65.42485046 34.0874939 C65.44282527 39.52554972 65.44160522 44.96344457 65.43590808 50.40152121 C65.4328221 54.93937762 65.43890217 59.47720284 65.44494683 64.01505482 C65.45900499 74.72018652 65.45742035 85.42523845 65.44604492 96.13037109 C65.43456541 107.17761486 65.44863372 118.22461582 65.4754414 129.27182758 C65.49758832 138.75304497 65.50423795 148.23418609 65.49836498 157.71542752 C65.49499144 163.37964827 65.49743678 169.04371341 65.51461601 174.70791245 C65.53006666 180.03494404 65.52615032 185.36161569 65.50731087 190.68863297 C65.50361962 192.64375997 65.50674899 194.59891354 65.51719666 196.55401611 C65.53037182 199.22334734 65.51889009 201.89148091 65.50120544 204.5607605 C65.51561295 205.72108239 65.51561295 205.72108239 65.53031152 206.90484512 C65.45978878 212.07922617 64.26869622 215.01485586 61 219 C55.482967 223.13093455 48.98503266 222.47608451 42.3828125 222.51171875 C41.30765381 222.52835571 40.23249512 222.54499268 39.12475586 222.56213379 C35.12503435 222.61978007 31.12498068 222.6521475 27.125 222.6875 C13.698125 222.8421875 13.698125 222.8421875 0 223 C-0.33 193.96 -0.66 164.92 -1 135 C-3.31 134.34 -5.62 133.68 -8 133 C-15.52151815 130.02002136 -20.8331295 125.68615607 -24.26953125 118.23828125 C-26.09411905 112.64743199 -25.80554199 107.12166236 -23.4375 101.75 C-20.26126796 96.16616146 -15.65689534 92.82844767 -10 90 C-5.545 89.01 -5.545 89.01 -1 88 C-0.67 58.96 -0.34 29.92 0 0 Z " fill="#FEFEFE" transform="translate(596,154)"/>
<path d="M0 0 C0.9521725 -0.00060267 1.904345 -0.00120535 2.88537121 -0.00182629 C5.96023139 0.00189867 9.03356614 0.03993784 12.1081543 0.0793457 C14.00931062 0.08669939 15.91047704 0.09179889 17.81164551 0.09460449 C24.85204265 0.12079276 31.89222292 0.19059919 38.93237305 0.25512695 C62.53768555 0.40981445 62.53768555 0.40981445 86.61987305 0.56762695 C86.61987305 35.21762695 86.61987305 69.86762695 86.61987305 105.56762695 C63.01456055 105.72231445 63.01456055 105.72231445 38.93237305 105.88012695 C33.96601807 105.92564697 28.99966309 105.97116699 23.8828125 106.01806641 C17.81164551 106.04064941 17.81164551 106.04064941 14.96818542 106.04484558 C12.98501476 106.0525165 11.00186722 106.0700878 9.0188446 106.09550476 C6.01215192 106.1321112 3.00688217 106.1371571 0 106.13525391 C-0.88137225 106.15324445 -1.7627445 106.17123499 -2.670825 106.1897707 C-6.80060075 106.15478256 -8.88289077 105.88758679 -12.4259491 103.60771179 C-15.10994807 99.43225531 -15.08426094 96.22972616 -15.02709961 91.35864258 C-15.03586121 90.43935471 -15.0446228 89.52006683 -15.0536499 88.57292175 C-15.07562547 85.53942424 -15.06109744 82.50738884 -15.04418945 79.47387695 C-15.04755811 77.36307496 -15.05241114 75.25227485 -15.0586853 73.14147949 C-15.06605415 68.71970128 -15.05535037 64.29842841 -15.03198242 59.87670898 C-15.00349505 54.21026639 -15.0198989 48.54500786 -15.04984474 42.8786087 C-15.06791712 38.52051887 -15.06215987 34.16270952 -15.04920578 29.80461121 C-15.04587163 27.71542724 -15.04995916 25.62621777 -15.06160355 23.5370636 C-15.07431094 20.61622727 -15.05493631 17.69730515 -15.02709961 14.77661133 C-15.03722076 13.91412277 -15.04734192 13.05163422 -15.05776978 12.16300964 C-14.98583899 8.08671763 -14.67499599 6.02635024 -12.4259491 2.52754211 C-8.19780534 -0.19316929 -4.93044359 -0.10064005 0 0 Z " fill="#FDFEFD" transform="translate(46.380126953125,253.432373046875)"/>
<path d="M0 0 C0.90136185 -0.01283524 1.80272369 -0.02567047 2.73139954 -0.03889465 C4.18923103 -0.04997505 4.18923103 -0.04997505 5.67651367 -0.0612793 C7.18032845 -0.07338692 7.18032845 -0.07338692 8.71452332 -0.08573914 C10.83700841 -0.09957168 12.95951566 -0.11029754 15.08203125 -0.11816406 C18.32163803 -0.13537667 21.56022418 -0.1792708 24.79956055 -0.22338867 C26.86270409 -0.23351592 28.9258563 -0.24203192 30.98901367 -0.2487793 C31.95482864 -0.26628738 32.92064362 -0.28379547 33.91572571 -0.30183411 C39.68929052 -0.28328929 43.27846682 0.08945164 47.53198242 4.17700195 C48.21313477 6.55883789 48.21313477 6.55883789 48.11791992 9.16137695 C48.08891602 10.56323242 48.08891602 10.56323242 48.05932617 11.9934082 C48.00905273 12.96149414 47.9587793 13.92958008 47.90698242 14.92700195 C47.86637695 16.40233398 47.86637695 16.40233398 47.82495117 17.9074707 C47.75430829 20.33287618 47.65574361 22.7538214 47.53198242 25.17700195 C48.40935059 25.15343628 48.40935059 25.15343628 49.30444336 25.12939453 C51.96352407 25.06689928 54.62245006 25.02796626 57.28198242 24.98950195 C58.66256836 24.95179688 58.66256836 24.95179688 60.07104492 24.91333008 C60.96049805 24.90366211 61.84995117 24.89399414 62.76635742 24.8840332 C63.58330078 24.86832275 64.40024414 24.8526123 65.24194336 24.83642578 C68.16766305 25.27154081 69.39297463 26.14538337 71.53198242 28.17700195 C72.03991699 30.48497009 72.03991699 30.48497009 72.04956055 33.22753906 C72.06216919 34.2554808 72.07477783 35.28342255 72.08776855 36.34251404 C72.07967163 37.45191849 72.07157471 38.56132294 72.06323242 39.7043457 C72.06897278 41.4150399 72.06897278 41.4150399 72.0748291 43.16029358 C72.07755273 45.57366823 72.07016019 47.98707217 72.0534668 50.40039062 C72.03208494 54.0967798 72.05324491 57.79122073 72.07885742 61.48754883 C72.07621384 63.83065208 72.07108824 66.17375413 72.06323242 68.5168457 C72.07132935 69.62422592 72.07942627 70.73160614 72.08776855 71.87254333 C72.07515991 72.90363724 72.06255127 73.93473114 72.04956055 74.99707031 C72.04637817 75.90291367 72.0431958 76.80875702 72.03991699 77.74205017 C71.37266919 80.94072244 70.04042913 82.15121526 67.53198242 84.17700195 C65.24194336 84.63110352 65.24194336 84.63110352 62.76635742 84.56762695 C61.8769043 84.55473633 60.98745117 84.5418457 60.07104492 84.52856445 C59.1506543 84.49504883 58.23026367 84.4615332 57.28198242 84.42700195 C56.34612305 84.40895508 55.41026367 84.3909082 54.44604492 84.37231445 C52.14031227 84.32525868 49.83667297 84.25953908 47.53198242 84.17700195 C47.56340332 85.05437012 47.56340332 85.05437012 47.59545898 85.94946289 C47.67878358 88.60846661 47.73069139 91.2671955 47.78198242 93.92700195 C47.81549805 94.84739258 47.84901367 95.7677832 47.88354492 96.71606445 C47.90288086 98.05024414 47.90288086 98.05024414 47.92260742 99.41137695 C47.95402832 100.63679199 47.95402832 100.63679199 47.98608398 101.88696289 C47.53198242 104.17700195 47.53198242 104.17700195 46.20458984 106.43945312 C41.87826615 109.25213658 37.43013999 108.76709915 32.37963867 108.7434082 C30.74121254 108.75270607 30.74121254 108.75270607 29.06968689 108.76219177 C26.7606597 108.76929286 24.45158134 108.76611098 22.14257812 108.75341797 C18.61061238 108.73956522 15.08130196 108.77360655 11.54956055 108.81176758 C9.30541927 108.81271889 7.06127469 108.81085932 4.81713867 108.8059082 C3.76180435 108.81916641 2.70647003 108.83242462 1.61915588 108.84608459 C-3.14800926 108.78559615 -5.67549463 108.73842316 -9.64282227 105.92797852 C-11.52777056 103.08694088 -12.07010741 101.87844297 -11.95629883 98.5324707 C-11.94018555 97.69135742 -11.92407227 96.85024414 -11.9074707 95.98364258 C-11.86557617 95.11932617 -11.82368164 94.25500977 -11.78051758 93.36450195 C-11.75795898 92.48084961 -11.73540039 91.59719727 -11.7121582 90.68676758 C-11.65349186 88.51611285 -11.56381737 86.34633505 -11.46801758 84.17700195 C-12.78157227 84.23500977 -14.09512695 84.29301758 -15.44848633 84.3527832 C-17.18412781 84.39969243 -18.91980781 84.44519135 -20.65551758 84.48950195 C-21.51983398 84.53139648 -22.38415039 84.57329102 -23.2746582 84.61645508 C-24.11577148 84.63256836 -24.95688477 84.64868164 -25.82348633 84.6652832 C-26.97820435 84.70455933 -26.97820435 84.70455933 -28.15625 84.74462891 C-31.94005437 83.81556088 -33.21878675 82.3520994 -35.46801758 79.17700195 C-36.19603393 75.41372155 -36.14495389 71.71496948 -36.09692383 67.8918457 C-36.09933578 66.79860489 -36.10174774 65.70536407 -36.10423279 64.57899475 C-36.10325471 62.27170172 -36.08987062 59.96438512 -36.06494141 57.65722656 C-36.03060303 54.12329575 -36.04429366 50.59186117 -36.0637207 47.05786133 C-36.05682314 44.81501213 -36.04715158 42.57216939 -36.03442383 40.3293457 C-36.0393837 39.27198715 -36.04434357 38.2146286 -36.04945374 37.12522888 C-35.93312034 29.89239888 -35.93312034 29.89239888 -33.73046875 26.50439453 C-31.13096638 24.97925216 -29.69980737 24.70952016 -26.70239258 24.78637695 C-25.36821289 24.80571289 -25.36821289 24.80571289 -24.00708008 24.82543945 C-22.62649414 24.87571289 -22.62649414 24.87571289 -21.21801758 24.92700195 C-20.2821582 24.94504883 -19.34629883 24.9630957 -18.38208008 24.98168945 C-16.07634742 25.02874522 -13.77270813 25.09446483 -11.46801758 25.17700195 C-11.51442383 23.86344727 -11.56083008 22.54989258 -11.60864258 21.1965332 C-11.64617024 19.46087891 -11.68256933 17.72519996 -11.71801758 15.98950195 C-11.7515332 15.12518555 -11.78504883 14.26086914 -11.81958008 13.37036133 C-11.88414086 9.15777026 -11.84797599 6.81107784 -9.63989258 3.1262207 C-6.53449988 0.33918661 -4.01784558 0.04991319 0 0 Z " fill="#C4E0B2" transform="translate(262.468017578125,145.822998046875)"/>
<path d="M0 0 C38.61 0 77.22 0 117 0 C117 8.58 117 17.16 117 26 C114.09300293 26.0093457 111.18600586 26.01869141 108.19091797 26.02832031 C98.58354464 26.06209552 88.976386 26.11764761 79.36918449 26.18390274 C73.54461417 26.22340282 67.72019562 26.25557903 61.89550781 26.27099609 C56.27377698 26.28614578 50.6524633 26.3205619 45.03091812 26.36830902 C42.88677726 26.38314014 40.74257685 26.391042 38.59838486 26.39188385 C35.59362116 26.39424998 32.59001359 26.42130207 29.58544922 26.45410156 C28.69999924 26.4490712 27.81454926 26.44404083 26.90226746 26.43885803 C21.45148346 26.53084469 18.33496421 27.38817002 14 31 C9.67534584 35.92115819 9.84696045 40.68099336 9.83886719 46.96606445 C9.83390228 47.88345398 9.82893738 48.80084351 9.82382202 49.74603271 C9.80920072 52.78512316 9.80239832 55.82416139 9.796875 58.86328125 C9.79112338 60.97454327 9.78536565 63.08580527 9.77960205 65.19706726 C9.76909206 69.62641646 9.76324942 74.05574751 9.75976562 78.48510742 C9.75428189 84.15793093 9.7302563 89.83051431 9.70179367 95.50326252 C9.68316026 99.86560261 9.6779613 104.22788494 9.67642975 108.59026146 C9.67340413 110.68142192 9.66537867 112.77258138 9.65224457 114.86370277 C9.63517013 117.79123775 9.63706788 120.71818724 9.64355469 123.64575195 C9.62973251 124.93880501 9.62973251 124.93880501 9.6156311 126.25798035 C9.65026182 131.25288134 10.23126985 134.67266617 13 139 C18.41073612 143.88285943 22.02837011 144.15989049 29.13134766 144.20532227 C30.07773605 144.21522186 31.02412445 144.22512146 31.99919128 144.23532104 C35.13745596 144.26699022 38.27573579 144.29171488 41.4140625 144.31640625 C43.58597209 144.3369711 45.75787764 144.35796744 47.92977905 144.37937927 C53.65410085 144.43464839 59.37845905 144.48403631 65.10284424 144.53222656 C70.94099173 144.58240628 76.77908617 144.63811074 82.6171875 144.69335938 C94.07807971 144.80100014 105.53901793 144.90243194 117 145 C117.14522934 148.91627663 117.23404757 152.83186153 117.3125 156.75 C117.35439453 157.86117187 117.39628906 158.97234375 117.43945312 160.1171875 C117.56086906 168.17920562 117.56086906 168.17920562 115.13160706 171.73426819 C110.57463356 173.57610409 106.45648513 173.54952505 101.58178711 173.50170898 C100.01025124 173.50981346 100.01025124 173.50981346 98.40696716 173.51808167 C94.94680461 173.53058042 91.48747214 173.5140706 88.02734375 173.49609375 C85.62268531 173.4962487 83.21802661 173.49773699 80.81336975 173.50050354 C75.77545116 173.50188802 70.73781711 173.48931995 65.69995117 173.46655273 C59.23776134 173.4381531 52.77604379 173.44090911 46.31381893 173.45364285 C41.34932918 173.46059241 36.38494888 173.45281918 31.4204731 173.44038582 C29.03740419 173.43586539 26.65432357 173.43553966 24.27125359 173.43945122 C20.9435294 173.44235666 17.61645989 173.42588809 14.28881836 173.40405273 C12.80735321 173.41080521 12.80735321 173.41080521 11.29595947 173.41769409 C10.38895798 173.40778946 9.48195648 173.39788483 8.54747009 173.38768005 C7.76122222 173.38525016 6.97497435 173.38282026 6.16490078 173.38031673 C3.26901994 172.87158583 1.99731173 172.17559495 0 170 C-0.49219131 166.97590351 -0.49219131 166.97590351 -0.48101807 163.18537903 C-0.48443577 162.48861185 -0.48785347 161.79184468 -0.49137473 161.07396334 C-0.49797619 158.73354523 -0.47594191 156.39426793 -0.45410156 154.05395508 C-0.45297357 152.3786573 -0.45360601 150.70335754 -0.45587158 149.02806091 C-0.45702153 144.47449236 -0.43346695 139.92134334 -0.40557575 135.36787248 C-0.38060878 130.61129257 -0.37822382 125.85470356 -0.37347412 121.09806824 C-0.36103048 112.08825307 -0.32819013 103.07863153 -0.28807616 94.06890172 C-0.23505188 81.89581433 -0.2134242 69.72267417 -0.19006729 57.54950047 C-0.15242968 38.36618855 -0.07274816 19.18328527 0 0 Z " fill="#C3E0B1" transform="translate(16,221)"/>
<path d="M0 0 C1.21476655 -0.00935994 1.21476655 -0.00935994 2.45407385 -0.01890898 C5.1712106 -0.03488031 7.88745539 -0.02221886 10.604599 -0.00964355 C12.5510409 -0.0150628 14.49747869 -0.02218434 16.44390869 -0.03088379 C21.73306278 -0.04914234 27.02190531 -0.04203943 32.31106496 -0.02936745 C37.84035039 -0.01925436 43.3696088 -0.02862828 48.89889526 -0.03491211 C58.18398336 -0.04219283 67.46894426 -0.03258899 76.75401306 -0.0135498 C87.49799666 0.0082261 98.24167673 0.00116398 108.98565298 -0.02085543 C118.20186659 -0.03898965 127.41798867 -0.04157762 136.63421434 -0.03110075 C142.14239412 -0.02485576 147.65043108 -0.02405791 153.15860176 -0.0372467 C158.33544231 -0.04877603 163.51189028 -0.04083294 168.68868828 -0.01766968 C170.59185508 -0.01236723 172.49505476 -0.01392246 174.39820862 -0.02272034 C176.98979989 -0.03359891 179.58012124 -0.02000648 182.17163086 0 C182.93057162 -0.00892289 183.68951238 -0.01784577 184.47145134 -0.02703905 C189.56773576 0.04964568 189.56773576 0.04964568 191.71419191 2.21357727 C193.27175384 4.94541505 193.39912394 6.58858307 193.40264034 9.72101593 C193.41108028 10.78198219 193.41952022 11.84294845 193.42821592 12.9360652 C193.42220588 14.10064269 193.41619583 15.26522017 193.41000366 16.46508789 C193.41808197 18.32195559 193.41808197 18.32195559 193.42632347 20.21633577 C193.43817209 23.65442022 193.43652359 27.09202116 193.42915666 30.53008676 C193.42443525 34.23703545 193.43692565 37.94393166 193.44717407 41.65086365 C193.46438713 48.91350131 193.46519698 56.17605255 193.45996117 63.43870533 C193.4559232 69.34009166 193.45735857 75.24145241 193.46270943 81.14283752 C193.46345785 81.98207513 193.46420627 82.82131273 193.46497737 83.68598178 C193.46650881 85.39076373 193.46804716 87.09554567 193.46959234 88.8003276 C193.48332623 104.79404382 193.47787326 120.78771114 193.46640713 136.78142625 C193.45647185 151.42196745 193.46941891 166.06238233 193.49334132 180.70290405 C193.51770714 195.72770805 193.52734652 210.75245315 193.52068859 225.77727652 C193.51719101 234.21585864 193.51946396 242.65434355 193.53693962 251.09291077 C193.55163011 258.27580638 193.55233846 265.45853633 193.53486871 272.64142859 C193.5263305 276.30778816 193.52427734 279.97385139 193.53952026 283.64019585 C193.5558231 287.61054431 193.54127951 291.58043085 193.52352905 295.55078125 C193.53793656 297.29764748 193.53793656 297.29764748 193.55263513 299.07980394 C193.54282084 300.1407702 193.53300655 301.20173646 193.52289486 302.29485321 C193.52278752 303.21160812 193.52268019 304.12836303 193.5225696 305.07289839 C192.8582252 308.30671274 191.59896345 309.50214135 189.02232361 311.50793457 C186.24542511 311.90083331 183.86490566 312.04879673 181.08934021 312.01586914 C179.88175733 312.02522908 179.88175733 312.02522908 178.64977884 312.03477812 C175.94879382 312.05074896 173.24870615 312.03808817 170.54771423 312.0255127 C168.61274691 312.030932 166.67778372 312.03805358 164.74282837 312.04675293 C159.48459728 312.06501192 154.22667959 312.05790807 148.96844292 312.04523659 C143.47032185 312.03512229 137.97222794 312.0444979 132.47410583 312.05078125 C123.24029209 312.05806223 114.00660623 312.0484581 104.77281189 312.02941895 C94.09133165 312.0076494 83.41015679 312.01470044 72.72868395 312.03672457 C63.56425881 312.0548657 54.3999257 312.05744318 45.23548841 312.04696989 C39.75913454 312.0407279 34.28292429 312.03991876 28.80657959 312.05311584 C23.65846242 312.06465496 18.51073966 312.05668399 13.36266518 312.03353882 C11.47120634 312.02824137 9.57971442 312.02978315 7.68826866 312.03858948 C5.11016386 312.0494878 2.53333035 312.03585133 -0.04469299 312.01586914 C-1.17289845 312.02925347 -1.17289845 312.02925347 -2.32389593 312.04290819 C-5.59506387 311.99358013 -7.54960735 311.84119279 -10.16856861 309.80229187 C-12.34353001 307.04394954 -12.4785794 305.76977063 -12.48104095 302.29485321 C-12.49147194 301.23388695 -12.50190293 300.17292069 -12.51265001 299.07980394 C-12.49926568 297.33293771 -12.49926568 297.33293771 -12.48561096 295.55078125 C-12.49185092 294.31286945 -12.49809089 293.07495765 -12.50451994 291.79953337 C-12.51773311 288.36130833 -12.51295304 284.92395483 -12.50057507 281.48578238 C-12.49153992 277.77882594 -12.50548663 274.0719467 -12.51649475 270.36500549 C-12.53430108 263.10233873 -12.53043064 255.83983711 -12.51884419 248.57716382 C-12.50981842 242.6757726 -12.50858214 236.77442775 -12.51293945 230.87303162 C-12.51355239 230.03379401 -12.51416532 229.19455641 -12.51479682 228.32988736 C-12.5160757 226.62510541 -12.51737255 224.92032347 -12.51868719 223.21554154 C-12.53009917 207.22180644 -12.5169696 191.22816297 -12.49548572 175.23444289 C-12.47761417 161.5047601 -12.4807181 147.77521258 -12.49916077 134.04553223 C-12.52055658 118.10986302 -12.52900048 102.17427418 -12.51671171 86.23859262 C-12.51543749 84.5400076 -12.51418 82.84142257 -12.51293945 81.14283752 C-12.51232235 80.30705491 -12.51170525 79.4712723 -12.51106945 78.61016294 C-12.50761267 72.7144085 -12.51345193 66.81870494 -12.52285767 60.92295837 C-12.53406473 53.7400541 -12.53106497 46.55732473 -12.50973469 39.37444055 C-12.4992067 35.70808685 -12.49513185 32.04202497 -12.5083313 28.37567329 C-12.52240928 24.40531236 -12.50562434 20.43543151 -12.48561096 16.46508789 C-12.49453385 15.3005104 -12.50345674 14.13593291 -12.51265001 12.9360652 C-12.50221902 11.87509894 -12.49178803 10.81413268 -12.48104095 9.72101593 C-12.48039155 8.80426102 -12.47974214 7.88750611 -12.47907305 6.94297075 C-11.09146873 0.20406118 -5.87953943 -0.06932968 0 0 Z M-4.97767639 7.50793457 C-4.97767639 105.51793457 -4.97767639 203.52793457 -4.97767639 304.50793457 C58.05232361 304.50793457 121.08232361 304.50793457 186.02232361 304.50793457 C186.02232361 206.49793457 186.02232361 108.48793457 186.02232361 7.50793457 C122.99232361 7.50793457 59.96232361 7.50793457 -4.97767639 7.50793457 Z " fill="#66B948" transform="translate(188.97767639160156,44.4920654296875)"/>
<path d="M0 0 C0.90136185 -0.01283524 1.80272369 -0.02567047 2.73139954 -0.03889465 C4.18923103 -0.04997505 4.18923103 -0.04997505 5.67651367 -0.0612793 C7.18032845 -0.07338692 7.18032845 -0.07338692 8.71452332 -0.08573914 C10.83700841 -0.09957168 12.95951566 -0.11029754 15.08203125 -0.11816406 C18.32163803 -0.13537667 21.56022418 -0.1792708 24.79956055 -0.22338867 C26.86270409 -0.23351592 28.9258563 -0.24203192 30.98901367 -0.2487793 C31.95482864 -0.26628738 32.92064362 -0.28379547 33.91572571 -0.30183411 C39.68929052 -0.28328929 43.27846682 0.08945164 47.53198242 4.17700195 C48.21313477 6.55883789 48.21313477 6.55883789 48.11791992 9.16137695 C48.08891602 10.56323242 48.08891602 10.56323242 48.05932617 11.9934082 C48.00905273 12.96149414 47.9587793 13.92958008 47.90698242 14.92700195 C47.86637695 16.40233398 47.86637695 16.40233398 47.82495117 17.9074707 C47.75430829 20.33287618 47.65574361 22.7538214 47.53198242 25.17700195 C48.40935059 25.15343628 48.40935059 25.15343628 49.30444336 25.12939453 C51.96352407 25.06689928 54.62245006 25.02796626 57.28198242 24.98950195 C58.66256836 24.95179688 58.66256836 24.95179688 60.07104492 24.91333008 C60.96049805 24.90366211 61.84995117 24.89399414 62.76635742 24.8840332 C63.58330078 24.86832275 64.40024414 24.8526123 65.24194336 24.83642578 C68.16766305 25.27154081 69.39297463 26.14538337 71.53198242 28.17700195 C72.03991699 30.48497009 72.03991699 30.48497009 72.04956055 33.22753906 C72.06216919 34.2554808 72.07477783 35.28342255 72.08776855 36.34251404 C72.07967163 37.45191849 72.07157471 38.56132294 72.06323242 39.7043457 C72.06897278 41.4150399 72.06897278 41.4150399 72.0748291 43.16029358 C72.07755273 45.57366823 72.07016019 47.98707217 72.0534668 50.40039062 C72.03208494 54.0967798 72.05324491 57.79122073 72.07885742 61.48754883 C72.07621384 63.83065208 72.07108824 66.17375413 72.06323242 68.5168457 C72.07132935 69.62422592 72.07942627 70.73160614 72.08776855 71.87254333 C72.07515991 72.90363724 72.06255127 73.93473114 72.04956055 74.99707031 C72.04637817 75.90291367 72.0431958 76.80875702 72.03991699 77.74205017 C71.37266919 80.94072244 70.04042913 82.15121526 67.53198242 84.17700195 C65.24194336 84.63110352 65.24194336 84.63110352 62.76635742 84.56762695 C61.8769043 84.55473633 60.98745117 84.5418457 60.07104492 84.52856445 C59.1506543 84.49504883 58.23026367 84.4615332 57.28198242 84.42700195 C56.34612305 84.40895508 55.41026367 84.3909082 54.44604492 84.37231445 C52.14031227 84.32525868 49.83667297 84.25953908 47.53198242 84.17700195 C47.56340332 85.05437012 47.56340332 85.05437012 47.59545898 85.94946289 C47.67878358 88.60846661 47.73069139 91.2671955 47.78198242 93.92700195 C47.81549805 94.84739258 47.84901367 95.7677832 47.88354492 96.71606445 C47.90288086 98.05024414 47.90288086 98.05024414 47.92260742 99.41137695 C47.95402832 100.63679199 47.95402832 100.63679199 47.98608398 101.88696289 C47.53198242 104.17700195 47.53198242 104.17700195 46.20458984 106.43945312 C41.87826615 109.25213658 37.43013999 108.76709915 32.37963867 108.7434082 C30.74121254 108.75270607 30.74121254 108.75270607 29.06968689 108.76219177 C26.7606597 108.76929286 24.45158134 108.76611098 22.14257812 108.75341797 C18.61061238 108.73956522 15.08130196 108.77360655 11.54956055 108.81176758 C9.30541927 108.81271889 7.06127469 108.81085932 4.81713867 108.8059082 C3.76180435 108.81916641 2.70647003 108.83242462 1.61915588 108.84608459 C-3.14800926 108.78559615 -5.67549463 108.73842316 -9.64282227 105.92797852 C-11.52777056 103.08694088 -12.07010741 101.87844297 -11.95629883 98.5324707 C-11.94018555 97.69135742 -11.92407227 96.85024414 -11.9074707 95.98364258 C-11.86557617 95.11932617 -11.82368164 94.25500977 -11.78051758 93.36450195 C-11.75795898 92.48084961 -11.73540039 91.59719727 -11.7121582 90.68676758 C-11.65349186 88.51611285 -11.56381737 86.34633505 -11.46801758 84.17700195 C-12.78157227 84.23500977 -14.09512695 84.29301758 -15.44848633 84.3527832 C-17.18412781 84.39969243 -18.91980781 84.44519135 -20.65551758 84.48950195 C-21.51983398 84.53139648 -22.38415039 84.57329102 -23.2746582 84.61645508 C-24.11577148 84.63256836 -24.95688477 84.64868164 -25.82348633 84.6652832 C-26.97820435 84.70455933 -26.97820435 84.70455933 -28.15625 84.74462891 C-31.94005437 83.81556088 -33.21878675 82.3520994 -35.46801758 79.17700195 C-36.19603393 75.41372155 -36.14495389 71.71496948 -36.09692383 67.8918457 C-36.09933578 66.79860489 -36.10174774 65.70536407 -36.10423279 64.57899475 C-36.10325471 62.27170172 -36.08987062 59.96438512 -36.06494141 57.65722656 C-36.03060303 54.12329575 -36.04429366 50.59186117 -36.0637207 47.05786133 C-36.05682314 44.81501213 -36.04715158 42.57216939 -36.03442383 40.3293457 C-36.0393837 39.27198715 -36.04434357 38.2146286 -36.04945374 37.12522888 C-35.93312034 29.89239888 -35.93312034 29.89239888 -33.73046875 26.50439453 C-31.13096638 24.97925216 -29.69980737 24.70952016 -26.70239258 24.78637695 C-25.36821289 24.80571289 -25.36821289 24.80571289 -24.00708008 24.82543945 C-22.62649414 24.87571289 -22.62649414 24.87571289 -21.21801758 24.92700195 C-20.2821582 24.94504883 -19.34629883 24.9630957 -18.38208008 24.98168945 C-16.07634742 25.02874522 -13.77270813 25.09446483 -11.46801758 25.17700195 C-11.51442383 23.86344727 -11.56083008 22.54989258 -11.60864258 21.1965332 C-11.64617024 19.46087891 -11.68256933 17.72519996 -11.71801758 15.98950195 C-11.7515332 15.12518555 -11.78504883 14.26086914 -11.81958008 13.37036133 C-11.88414086 9.15777026 -11.84797599 6.81107784 -9.63989258 3.1262207 C-6.53449988 0.33918661 -4.01784558 0.04991319 0 0 Z M-4.46801758 8.17700195 C-4.62516412 9.80956953 -4.71887171 11.44835533 -4.78442383 13.0871582 C-4.82631836 14.07651367 -4.86821289 15.06586914 -4.91137695 16.08520508 C-4.95069336 17.12612305 -4.99000977 18.16704102 -5.03051758 19.23950195 C-5.07370117 20.28428711 -5.11688477 21.32907227 -5.16137695 22.40551758 C-5.26782983 24.99587079 -5.36984518 27.58632381 -5.46801758 30.17700195 C-12.35116931 33.61857782 -20.78113035 31.8109597 -28.46801758 32.17700195 C-28.46801758 47.02700195 -28.46801758 61.87700195 -28.46801758 77.17700195 C-21.20801758 77.50700195 -13.94801758 77.83700195 -6.46801758 78.17700195 C-1.02640834 83.61861119 -4.81745666 93.48934207 -4.46801758 101.17700195 C10.71198242 101.17700195 25.89198242 101.17700195 41.53198242 101.17700195 C41.53198242 93.58700195 41.53198242 85.99700195 41.53198242 78.17700195 C49.45198242 77.84700195 57.37198242 77.51700195 65.53198242 77.17700195 C65.53198242 62.32700195 65.53198242 47.47700195 65.53198242 32.17700195 C54.64198242 31.68200195 54.64198242 31.68200195 43.53198242 31.17700195 C41.8855015 29.53052103 42.32620854 27.56949713 42.25073242 25.30200195 C42.1946582 23.82473633 42.1946582 23.82473633 42.13745117 22.31762695 C42.06713867 20.22387695 41.99682617 18.13012695 41.92651367 16.03637695 C41.87043945 14.55911133 41.87043945 14.55911133 41.81323242 13.05200195 C41.78293945 12.14192383 41.75264648 11.2318457 41.72143555 10.29418945 C41.76148483 8.19274764 41.76148483 8.19274764 40.53198242 7.17700195 C39.1558836 7.07904884 37.7748436 7.04902107 36.39526367 7.04760742 C35.51765381 7.04445526 34.64004395 7.0413031 33.73583984 7.03805542 C32.78169189 7.04007965 31.82754395 7.04210388 30.84448242 7.04418945 C29.87164307 7.04323273 28.89880371 7.042276 27.89648438 7.04129028 C25.83520442 7.04060837 23.77392234 7.04246343 21.71264648 7.04663086 C18.54560554 7.05197895 15.37870642 7.04668623 12.21166992 7.0402832 C10.21427377 7.04094398 8.21687771 7.04222514 6.21948242 7.04418945 C5.26533447 7.04216522 4.31118652 7.04014099 3.328125 7.03805542 C2.01171021 7.04278366 2.01171021 7.04278366 0.66870117 7.04760742 C-0.10771729 7.04840302 -0.88413574 7.04919861 -1.68408203 7.05001831 C-3.49235419 6.98296654 -3.49235419 6.98296654 -4.46801758 8.17700195 Z " fill="#68BB4B" transform="translate(262.468017578125,145.822998046875)"/>
<path d="M0 0 C4.85042388 0.41575062 6.84319505 2.41659978 10 6 C12.27121709 9.40682564 12.24468887 10.57797184 12.22705078 14.57299805 C12.22682419 16.28443245 12.22682419 16.28443245 12.22659302 18.03044128 C12.21627045 19.26176285 12.20594788 20.49308441 12.1953125 21.76171875 C12.1924826 23.02264847 12.18965271 24.28357819 12.18673706 25.5827179 C12.17743125 28.93160422 12.15946703 32.28021791 12.1373291 35.62902832 C12.11685386 39.04758347 12.10773176 42.4661668 12.09765625 45.88476562 C12.0755818 52.58991919 12.04209362 59.29494385 12 66 C10.35 65.67 8.7 65.34 7 65 C7 79.19 7 93.38 7 108 C9.475 107.505 9.475 107.505 12 107 C12 119.87 12 132.74 12 146 C10.35 146.33 8.7 146.66 7 147 C7.33 147.99 7.66 148.98 8 150 C9.32 150 10.64 150 12 150 C12.09125286 178.56150664 12.16203995 207.12299496 12.20426132 235.68461884 C12.20926414 239.05667322 12.21444143 242.4287273 12.21972656 245.80078125 C12.2207758 246.47209571 12.22182505 247.14341017 12.22290608 247.8350675 C12.24031073 258.70452328 12.27184872 269.57389444 12.30861118 280.44330002 C12.34601899 291.5965399 12.36793611 302.7497508 12.37635398 313.90305412 C12.38157344 320.16763289 12.39385997 326.4320197 12.42292023 332.69653702 C12.45004467 338.59143932 12.45845089 344.48607035 12.45243073 350.38102913 C12.45353228 352.54580089 12.46150363 354.71058161 12.4768219 356.87529945 C12.49670291 359.82940149 12.49194569 362.78247734 12.48101807 365.73660278 C12.49266943 366.5945891 12.5043208 367.45257542 12.51632524 368.33656132 C12.46263083 373.70122154 11.5697793 376.74967723 8 381 C4.9375 383.4375 4.9375 383.4375 2 385 C1.01 384.67 0.02 384.34 -1 384 C0.00911458 382.30729167 1.01822917 380.61458333 2.02734375 378.921875 C4.03378512 374.95734025 4.12701771 371.28255319 4.13422108 366.87946033 C4.13867892 365.61605723 4.14313676 364.35265413 4.14772969 363.05096608 C4.1476404 361.64618543 4.14745055 360.24140478 4.14717102 358.83662415 C4.15047054 357.34640745 4.15419629 355.85619165 4.1583125 354.36597699 C4.16833049 350.26501883 4.17204896 346.16407531 4.17470181 342.06310666 C4.17860542 337.64237097 4.18818367 333.22164687 4.19691467 328.80091858 C4.21667669 318.12243792 4.22674461 307.44395632 4.23564246 296.76546195 C4.24002548 291.73732442 4.24539223 286.70918795 4.25063133 281.68105125 C4.26764276 264.96769206 4.28213738 248.25433351 4.28938007 231.54096699 C4.29128998 227.20382499 4.29321031 222.86668299 4.29516602 218.52954102 C4.29564976 217.45156127 4.2961335 216.37358152 4.2966319 215.26293572 C4.30493389 197.79668284 4.33027406 180.33049841 4.36274669 162.86427543 C4.39581012 144.9341972 4.41382816 127.00415377 4.41702431 109.07404488 C4.41918999 99.00606459 4.42794716 88.93818413 4.45348549 78.87023354 C4.47518261 70.2967875 4.48324773 61.72346556 4.47351871 53.14999519 C4.46897125 48.77620487 4.4708861 44.40267066 4.49028015 40.02891541 C4.50789275 36.02229222 4.50692976 32.01611232 4.49138286 28.00948455 C4.48900389 26.56261103 4.49334541 25.11570696 4.50521151 23.66888014 C4.56195652 16.29104924 4.41611865 10.22570521 0.85785264 3.64380997 C0 2 0 2 0 0 Z " fill="#FEFEFE" transform="translate(389,8)"/>
<path d="M0 0 C39.27 0 78.54 0 119 0 C119 6.6 119 13.2 119 20 C79.73 20 40.46 20 0 20 C0 13.4 0 6.8 0 0 Z " fill="#C6E1B5" transform="translate(414,219)"/>
<path d="M0 0 C63.03 0 126.06 0 191 0 C191 0.99 191 1.98 191 3 C128.96 3 66.92 3 3 3 C3 100.02 3 197.04 3 297 C2.01 297 1.02 297 0 297 C0 198.99 0 100.98 0 0 Z " fill="#DEEDD4" transform="translate(184,52)"/>
<path d="M0 0 C30.03 0 60.06 0 91 0 C91 4.29 91 8.58 91 13 C60.97 13 30.94 13 0 13 C0 8.71 0 4.42 0 0 Z " fill="#C6E1B4" transform="translate(42,268)"/>
<path d="M0 0 C0.804375 -0.00128906 1.60875 -0.00257813 2.4375 -0.00390625 C3.283125 -0.00003906 4.12875 0.00382813 5 0.0078125 C6.2684375 0.00201172 6.2684375 0.00201172 7.5625 -0.00390625 C8.366875 -0.00261719 9.17125 -0.00132812 10 0 C10.7425 0.00112793 11.485 0.00225586 12.25 0.00341797 C14 0.1328125 14 0.1328125 15 1.1328125 C15.14115161 3.80340101 15.04247107 6.45713488 15 9.1328125 C16.299375 9.1121875 17.59875 9.0915625 18.9375 9.0703125 C20.29165633 9.04881796 21.64756083 9.06133051 23 9.1328125 C24 10.1328125 24 10.1328125 24.11352539 11.99047852 C24.10828857 12.78123779 24.10305176 13.57199707 24.09765625 14.38671875 C24.09443359 15.24072266 24.09121094 16.09472656 24.08789062 16.97460938 C24.07532227 18.32135742 24.07532227 18.32135742 24.0625 19.6953125 C24.05798828 20.59701172 24.05347656 21.49871094 24.04882812 22.42773438 C24.03700244 24.66278839 24.01906638 26.89780852 24 29.1328125 C21.03 29.1328125 18.06 29.1328125 15 29.1328125 C15.020625 30.5971875 15.04125 32.0615625 15.0625 33.5703125 C15.08392007 35.09113768 15.07179964 36.61353212 15 38.1328125 C13.4779041 39.6549084 12.11789918 39.26240771 10 39.265625 C9.195625 39.26691406 8.39125 39.26820313 7.5625 39.26953125 C6.716875 39.26566406 5.87125 39.26179688 5 39.2578125 C4.154375 39.26167969 3.30875 39.26554687 2.4375 39.26953125 C1.633125 39.26824219 0.82875 39.26695312 0 39.265625 C-0.7425 39.26449707 -1.485 39.26336914 -2.25 39.26220703 C-4 39.1328125 -4 39.1328125 -5 38.1328125 C-5.45459858 35.47818129 -5.70243238 32.81092112 -6 30.1328125 C-7.299375 29.9884375 -8.59875 29.8440625 -9.9375 29.6953125 C-13.875 29.2578125 -13.875 29.2578125 -15 28.1328125 C-15.12663091 25.30864868 -15.18520548 22.51986457 -15.1875 19.6953125 C-15.19974609 18.90576172 -15.21199219 18.11621094 -15.22460938 17.30273438 C-15.22987279 15.24473815 -15.12206285 13.18719241 -15 11.1328125 C-13 9.1328125 -13 9.1328125 -11.0546875 8.9375 C-9.03645833 9.00260417 -7.01822917 9.06770833 -5 9.1328125 C-5.020625 7.8334375 -5.04125 6.5340625 -5.0625 5.1953125 C-5.08399454 3.84115617 -5.07148199 2.48525167 -5 1.1328125 C-3.4779041 -0.3892834 -2.11789918 0.00321729 0 0 Z " fill="#C5E1B4" transform="translate(552,154.8671875)"/>
<path d="M0 0 C4.80373898 2.65718633 8.05016447 6.08799341 9.8125 11.375 C10.73899664 18.52896143 10.07848019 23.68945553 5.6484375 29.4921875 C1.72705399 33.51369144 -2.57947007 35.51212747 -8.1875 35.875 C-13.99568864 35.54343018 -18.6043648 33.04145811 -22.5625 28.875 C-26.53753802 22.75955689 -27.23315306 17.65722667 -26.1875 10.375 C-23.78080263 4.88914569 -19.72485476 1.32817009 -14.2578125 -1 C-9.08757002 -2.56082792 -4.92247203 -2.19802691 0 0 Z " fill="#68BB4B" transform="translate(636.1875,182.625)"/>
<path d="M0 0 C4.63526303 2.40538148 6.97546392 6.10836195 8.75390625 10.91015625 C9.70331993 17.72763277 8.76641473 23.26389024 4.75390625 28.91015625 C0.85827651 32.80578599 -3.06024523 34.86338197 -8.640625 34.9453125 C-14.19543138 34.60386263 -17.95562798 33.68985229 -22.24609375 29.91015625 C-27.17056177 23.38856347 -28.07327999 17.92926731 -27.24609375 9.91015625 C-21.69187728 -1.40398841 -11.25444644 -4.73523676 0 0 Z " fill="#68BA4A" transform="translate(637.24609375,249.08984375)"/>
<path d="M0 0 C4.94558146 2.65596041 7.64424994 5.90549984 9.625 11.1875 C10.28318795 16.45300363 10.32342996 20.7369147 8 25.5625 C0.48608818 33.86734991 0.48608818 33.86734991 -5.1328125 34.49609375 C-11.94155266 34.75675318 -16.668141 34.64757251 -21.8515625 29.9453125 C-26.33331807 24.77405608 -26.93038228 19.37160648 -26.72265625 12.76953125 C-26.02695586 7.6025879 -23.0597765 4.6737247 -19.3125 1.375 C-13.43583284 -3.0012415 -6.5391388 -3.16682877 0 0 Z " fill="#67BA49" transform="translate(636.375,314.8125)"/>
<path d="M0 0 C1.65 0 3.3 0 5 0 C5 2.97 5 5.94 5 9 C36.02 9 67.04 9 99 9 C99 11.64 99 14.28 99 17 C67.98 17 36.96 17 5 17 C5 19.64 5 22.28 5 25 C3.35 25 1.7 25 0 25 C0 16.75 0 8.5 0 0 Z " fill="#C6E1B5" transform="translate(409,239)"/>
<path d="M0 0 C4.9710149 2.53240382 8.49430567 5.98861134 11 11 C11.86659463 16.96712304 11.04409346 21.39609882 7.55078125 26.3359375 C4.15720744 29.97740461 0.34422033 30.82891741 -4.4375 31.4375 C-9.54803917 30.80988993 -13.82627706 29.35029987 -17.39453125 25.4921875 C-20.36971757 20.97158638 -20.95533763 16.28813152 -20 11 C-15.60243172 2.36773633 -9.38545652 -1.13954953 0 0 Z " fill="#67BA4A" transform="translate(284,359)"/>
<path d="M0 0 C0.33 0 0.66 0 1 0 C1 119.13 1 238.26 1 361 C0.67 361 0.34 361 0 361 C-0.33 287.74 -0.66 214.48 -1 139 C-2.32 138.67 -3.64 138.34 -5 138 C-5 136.68 -5 135.36 -5 134 C-3.68 133.67 -2.36 133.34 -1 133 C-1 120.79 -1 108.58 -1 96 C-2.98 96.495 -2.98 96.495 -5 97 C-6 96 -6 96 -6.12025452 94.24729919 C-6.11803391 93.48562943 -6.11581329 92.72395966 -6.11352539 91.93920898 C-6.11344986 91.07839218 -6.11337433 90.21757538 -6.11329651 89.33067322 C-6.10813522 88.39526199 -6.10297394 87.45985077 -6.09765625 86.49609375 C-6.0962413 85.54307877 -6.09482635 84.59006378 -6.09336853 83.60816956 C-6.08775152 80.55124835 -6.07519616 77.49439923 -6.0625 74.4375 C-6.05748719 72.37044376 -6.05292391 70.30338638 -6.04882812 68.23632812 C-6.03777656 63.15752412 -6.02050055 58.0787743 -6 53 C-4.0625 52.4375 -4.0625 52.4375 -2 52 C-1.67 52.33 -1.34 52.66 -1 53 C-0.67 35.51 -0.34 18.02 0 0 Z " fill="#D3EBCB" transform="translate(401,20)"/>
<path d="M0 0 C5.9515551 5.79895112 5.9515551 5.79895112 6.13701439 10.39686871 C6.14779134 11.89790773 6.15294133 13.39899278 6.15390015 14.90007019 C6.1582824 15.72580121 6.16266465 16.55153223 6.1671797 17.4022854 C6.18059552 20.18510332 6.18675282 22.96788955 6.19287109 25.75073242 C6.20076992 27.73964584 6.20903873 29.72855781 6.21765137 31.71746826 C6.24389865 38.26345445 6.25918251 44.80944712 6.2734375 51.35546875 C6.27879622 53.60702328 6.28417373 55.85857777 6.28956985 58.11013222 C6.31120327 67.47518833 6.32994037 76.84024271 6.34119225 86.2053175 C6.35743305 99.63549133 6.39060895 113.06537589 6.44759309 126.49544066 C6.48627523 135.93330428 6.50582295 145.37109048 6.51111281 154.80903131 C6.51476885 160.44823481 6.52681706 166.08712998 6.55921555 171.72624779 C6.58926523 177.03275467 6.5956189 182.33876618 6.58383179 187.64533997 C6.58361079 189.59200193 6.59193751 191.53868667 6.60948563 193.48526955 C6.63216212 196.14577992 6.62388983 198.80449173 6.60800171 201.4650116 C6.62882484 202.61717416 6.62882484 202.61717416 6.65006864 203.79261273 C6.56436528 209.62807197 4.71365753 212.52526388 1 217 C0.67 216.34 0.34 215.68 0 215 C0.30413692 214.30505149 0.60827385 213.61010298 0.92162704 212.89409542 C2.3199214 209.14140738 2.27668998 205.64213857 2.25396729 201.69447327 C2.25708727 200.86138986 2.26020725 200.02830644 2.26342177 199.16997808 C2.27139492 196.38025508 2.26508075 193.59075 2.25878906 190.80102539 C2.26149925 188.80019503 2.26506033 186.79936567 2.26940918 184.79853821 C2.27853275 179.36469558 2.27498887 173.93092883 2.26865101 168.49708486 C2.26359018 162.81172941 2.26828276 157.12638048 2.27142334 151.44102478 C2.27506303 141.8920678 2.2702641 132.34314174 2.26074219 122.79418945 C2.24986076 111.75437568 2.25338096 100.7146358 2.264395 89.67482382 C2.27347148 80.1978435 2.27475128 70.72088541 2.26951766 61.24390215 C2.26639956 55.58309654 2.2659842 49.92232567 2.27259064 44.26152229 C2.27836858 38.93867091 2.27435889 33.61591475 2.26280212 28.29307365 C2.26015782 26.33955926 2.26091671 24.38603684 2.26532745 22.43252563 C2.27079342 19.76574573 2.26393591 17.09927086 2.25396729 14.43251038 C2.25842873 13.65964457 2.26289017 12.88677877 2.26748681 12.09049278 C2.23553902 7.6833074 1.63042868 4.0970301 0 0 Z " fill="#BCDDA9" transform="translate(665,157)"/>
<path d="M0 0 C1.65 0 3.3 0 5 0 C5.07013648 14.49932613 5.12281131 28.99862588 5.15543652 43.49808693 C5.1708937 50.23071596 5.19196109 56.96323948 5.22631836 63.69580078 C5.25945688 70.19264709 5.27685189 76.68942493 5.28463173 83.18635178 C5.29017629 85.66547751 5.30100336 88.14459721 5.31719017 90.6236763 C5.33895573 94.09511549 5.34196721 97.56610125 5.34057617 101.03759766 C5.351362 102.06330872 5.36214783 103.08901978 5.3732605 104.14581299 C5.34564246 110.51212376 4.77432836 115.22567164 0.0625 119.9375 C-2 121 -2 121 -4.25 120.6875 C-4.8275 120.460625 -5.405 120.23375 -6 120 C-4.99088542 118.33984375 -3.98177083 116.6796875 -2.97265625 115.01953125 C-1.16711797 111.27068269 -0.87531287 107.41339393 -0.84178162 103.29862976 C-0.82709839 101.92522682 -0.82709839 101.92522682 -0.81211853 100.52407837 C-0.80636307 99.53217499 -0.8006076 98.54027161 -0.79467773 97.51831055 C-0.77982834 95.93713692 -0.77982834 95.93713692 -0.76467896 94.32402039 C-0.7331289 90.84494257 -0.70833212 87.36585111 -0.68359375 83.88671875 C-0.66301862 81.47247465 -0.642022 79.05823411 -0.62062073 76.64399719 C-0.56545781 70.29335412 -0.516023 63.94267884 -0.46777344 57.59197998 C-0.41751624 51.110119 -0.36185219 44.62830471 -0.30664062 38.14648438 C-0.19912972 25.43102975 -0.09748541 12.71553524 0 0 Z " fill="#C5E1B3" transform="translate(409,272)"/>
<path d="M0 0 C38.61 0 77.22 0 117 0 C117 0.66 117 1.32 117 2 C116.43070109 2.00238835 115.86140219 2.00477671 115.2748518 2.00723743 C101.42898858 2.06634751 87.58330215 2.1420614 73.73762798 2.23571491 C67.04197367 2.28050102 60.34638827 2.32010818 53.65063477 2.34643555 C47.19257328 2.37238628 40.7347494 2.41273019 34.27683449 2.46318626 C31.80923219 2.47991078 29.34158874 2.49139013 26.87393761 2.49761391 C23.42571291 2.50719424 19.97810382 2.53518113 16.5300293 2.56762695 C15.50288315 2.56619186 14.475737 2.56475677 13.41746521 2.5632782 C12.47937012 2.57581635 11.54127502 2.58835449 10.57475281 2.60127258 C9.35107262 2.60818603 9.35107262 2.60818603 8.10267162 2.61523914 C5.95997135 2.87238394 5.95997135 2.87238394 4.23899841 4.11087036 C2.3837141 6.93966541 2.61404032 9.26177845 2.60127258 12.62480164 C2.59462576 13.30115105 2.58797893 13.97750046 2.58113068 14.67434531 C2.56244707 16.94540245 2.56510945 19.21593522 2.56762695 21.48706055 C2.55861303 23.11310575 2.54828672 24.73914413 2.53674316 26.36517334 C2.50910348 30.78429405 2.49987923 35.20328609 2.49388909 39.62248206 C2.4845235 44.23899953 2.45832165 48.85542019 2.43388367 53.47187805 C2.3901649 62.21596133 2.361651 70.96002588 2.33856028 79.70418531 C2.31153739 89.6581718 2.26762413 99.61206117 2.22227156 109.56597841 C2.12934829 130.0439334 2.05770277 150.52191747 2 171 C1.34 170.67 0.68 170.34 0 170 C0 113.9 0 57.8 0 0 Z " fill="#9AC880" transform="translate(16,221)"/>
<path d="M0 0 C3.85544798 1.99657127 5.59805092 3.39707638 8 7 C8.57430821 11.81822214 8.58557505 16.43846654 6.875 21 C3.29943213 24.81393906 -0.36300217 26.18001865 -5.5 26.5 C-8.85054389 26.38699683 -10.80330332 25.83674749 -13.4375 23.75 C-17.45264502 19.44106388 -18.55713207 16.14399046 -18.4609375 10.32421875 C-17.65549538 6.26287923 -15.05462619 3.65894922 -12 1 C-8.29240268 -0.85379866 -4.04626515 -0.45923868 0 0 Z " fill="#C5E1B3" transform="translate(568,331)"/>
<path d="M0 0 C26.07 0 52.14 0 79 0 C79 2.31 79 4.62 79 7 C52.93 7 26.86 7 0 7 C0 4.69 0 2.38 0 0 Z " fill="#C5E1B3" transform="translate(414,264)"/>
<path d="M0 0 C24.75 0 49.5 0 75 0 C75 2.31 75 4.62 75 7 C50.25 7 25.5 7 0 7 C0 4.69 0 2.38 0 0 Z " fill="#C5E1B3" transform="translate(501,372)"/>
<path d="M0 0 C24.75 0 49.5 0 75 0 C75 1.98 75 3.96 75 6 C50.25 6 25.5 6 0 6 C0 4.02 0 2.04 0 0 Z " fill="#C5E1B3" transform="translate(58,289)"/>
<path d="M0 0 C1.01452744 -0.00637985 2.02905487 -0.0127597 3.07432556 -0.01933289 C4.17845291 -0.02044571 5.28258026 -0.02155853 6.42016602 -0.02270508 C8.10892601 -0.02769768 8.10892601 -0.02769768 9.83180237 -0.03279114 C12.21843048 -0.03786527 14.60506572 -0.04019931 16.99169922 -0.04003906 C20.65482201 -0.04222484 24.31764349 -0.06037373 27.98071289 -0.0793457 C30.2938629 -0.08227958 32.60701434 -0.08426442 34.92016602 -0.08520508 C36.02226913 -0.09239059 37.12437225 -0.09957611 38.25987244 -0.10697937 C39.78639183 -0.10236443 39.78639183 -0.10236443 41.34375 -0.09765625 C42.24230209 -0.09908127 43.14085419 -0.10050629 44.06663513 -0.10197449 C46.23657227 0.14526367 46.23657227 0.14526367 48.23657227 2.14526367 C47.68101671 6.70081923 47.68101671 6.70081923 46.23657227 8.14526367 C44.65141649 8.24901325 43.0616776 8.28378257 41.47314453 8.29052734 C39.95135338 8.30009712 39.95135338 8.30009712 38.39881897 8.30986023 C37.29469162 8.31097305 36.19056427 8.31208588 35.05297852 8.31323242 C33.92713852 8.31656082 32.80129852 8.31988922 31.64134216 8.32331848 C29.25471405 8.32839261 26.86807881 8.33072666 24.48144531 8.33056641 C20.81832252 8.33275219 17.15550104 8.35090107 13.49243164 8.36987305 C11.17928163 8.37280693 8.86613019 8.37479176 6.55297852 8.37573242 C4.89982384 8.3865107 4.89982384 8.3865107 3.21327209 8.39750671 C1.6867527 8.39289177 1.6867527 8.39289177 0.12939453 8.38818359 C-1.21843361 8.39032112 -1.21843361 8.39032112 -2.5934906 8.39250183 C-4.76342773 8.14526367 -4.76342773 8.14526367 -6.76342773 6.14526367 C-6.08932083 0.61758708 -5.41205152 0.02297911 0 0 Z " fill="#64B946" transform="translate(258.763427734375,21.854736328125)"/>
<path d="M0 0 C1.65 0 3.3 0 5 0 C5 27.06 5 54.12 5 82 C3.35 82 1.7 82 0 82 C0 54.94 0 27.88 0 0 Z " fill="#C5E1B3" transform="translate(409,137)"/>
<path d="M0 0 C0.99 0 1.98 0 3 0 C3 30.69 3 61.38 3 93 C-2.94 93.99 -2.94 93.99 -9 95 C-15.15371918 97.61709896 -19.66363016 99.94090185 -24 105 C-22.77377763 98.71561033 -18.95773809 95.62943845 -14 92 C-10 90 -10 90 -1 88 C-0.67 58.96 -0.34 29.92 0 0 Z " fill="#E0EED6" transform="translate(596,154)"/>
<path d="M0 0 C0.33 0 0.66 0 1 0 C1.7639277 3.40069277 2.12970575 6.55099508 2.14526367 10.03393555 C2.15164352 11.00811935 2.15802338 11.98230316 2.16459656 12.98600769 C2.16570938 14.02574234 2.1668222 15.06547699 2.16796875 16.13671875 C2.17296135 17.75040092 2.17296135 17.75040092 2.17805481 19.39668274 C2.18310858 21.66524834 2.18546361 23.93382135 2.18530273 26.20239258 C2.18749854 29.68518117 2.20569616 33.16765765 2.22460938 36.65039062 C2.22754167 38.85416558 2.22952756 41.05794204 2.23046875 43.26171875 C2.23765427 44.30752609 2.24483978 45.35333344 2.25224304 46.43083191 C2.24916641 47.39555923 2.24608978 48.36028656 2.24291992 49.35424805 C2.24434494 50.20520554 2.24576996 51.05616302 2.24723816 51.9329071 C2 54 2 54 0 56 C-2.15478516 56.22705078 -2.15478516 56.22705078 -4.7890625 56.1953125 C-5.73007812 56.18886719 -6.67109375 56.18242187 -7.640625 56.17578125 C-9.11789062 56.15064453 -9.11789062 56.15064453 -10.625 56.125 C-11.61757813 56.11597656 -12.61015625 56.10695312 -13.6328125 56.09765625 C-16.08878134 56.07404116 -18.54427168 56.04110799 -21 56 C-20.98428955 56.62044189 -20.9685791 57.24088379 -20.95239258 57.88012695 C-20.89003786 60.69082528 -20.85100852 63.50137812 -20.8125 66.3125 C-20.78736328 67.28896484 -20.76222656 68.26542969 -20.73632812 69.27148438 C-20.72666016 70.20927734 -20.71699219 71.14707031 -20.70703125 72.11328125 C-20.6913208 72.97735596 -20.67561035 73.84143066 -20.65942383 74.73168945 C-21.08459717 77.56343531 -21.76049813 78.259859 -24 80 C-26.18302917 80.36076355 -26.18302917 80.36076355 -28.74682617 80.34057617 C-29.70759567 80.34034958 -30.66836517 80.34012299 -31.6582489 80.33988953 C-32.69270645 80.32440567 -33.727164 80.30892181 -34.79296875 80.29296875 C-35.85413406 80.28872391 -36.91529938 80.28447906 -38.00862122 80.28010559 C-41.40183765 80.26329706 -44.79446272 80.22564019 -48.1875 80.1875 C-50.48631956 80.172456 -52.78514841 80.15876711 -55.08398438 80.14648438 C-60.72285842 80.11338645 -66.36138697 80.0631653 -72 80 C-72.33 79.34 -72.66 78.68 -73 78 C-72.16434761 77.9845388 -72.16434761 77.9845388 -71.31181335 77.96876526 C-65.52066308 77.8606998 -59.72966839 77.74610173 -53.9387207 77.62768555 C-51.7766444 77.58433687 -49.61453387 77.54266175 -47.45239258 77.50268555 C-44.34706298 77.44498156 -41.24190564 77.38128728 -38.13671875 77.31640625 C-37.16788254 77.29969376 -36.19904633 77.28298126 -35.20085144 77.26576233 C-33.84979057 77.2358445 -33.84979057 77.2358445 -32.47143555 77.20532227 C-31.67867722 77.18977798 -30.88591888 77.1742337 -30.06913757 77.15821838 C-27.80260226 77.06918774 -27.80260226 77.06918774 -25 76 C-24.67 68.74 -24.34 61.48 -24 54 C-14.1875 53.5625 -14.1875 53.5625 -11.10620117 53.43188477 C-10.30158447 53.39377686 -9.49696777 53.35566895 -8.66796875 53.31640625 C-7.84578857 53.27974854 -7.0236084 53.24309082 -6.17651367 53.20532227 C-3.82094822 53.06572228 -3.82094822 53.06572228 -1 52 C-0.67 34.84 -0.34 17.68 0 0 Z " fill="#D5E9C9" transform="translate(334,176)"/>
<path d="M0 0 C1.485 0.99 1.485 0.99 3 2 C3.28628303 4.7515767 3.37827044 7.27720631 3.34057617 10.02978516 C3.34123329 11.27380348 3.34123329 11.27380348 3.34190369 12.54295349 C3.33980898 15.29189368 3.31644613 18.0402285 3.29296875 20.7890625 C3.28737521 22.69192166 3.28310397 24.59478513 3.28010559 26.49765015 C3.26863772 31.51192095 3.2391539 36.52593207 3.20599365 41.5401001 C3.17533455 46.65430182 3.16160916 51.76854541 3.14648438 56.8828125 C3.11428601 66.92198925 3.06306628 76.96097305 3 87 C2.01 87 1.02 87 0 87 C0 58.29 0 29.58 0 0 Z " fill="#E0EED7" transform="translate(596,290)"/>
<path d="M0 0 C3.64588169 -0.02682987 7.29156846 -0.04675569 10.9375 -0.0625 C12.49887695 -0.07506836 12.49887695 -0.07506836 14.09179688 -0.08789062 C15.57583008 -0.09272461 15.57583008 -0.09272461 17.08984375 -0.09765625 C18.46450806 -0.10551147 18.46450806 -0.10551147 19.86694336 -0.11352539 C22 0 22 0 23 1 C23 4.3 23 7.6 23 11 C15.41 11 7.82 11 0 11 C0 7.37 0 3.74 0 0 Z " fill="#C4E0B1" transform="translate(596,137)"/>
<path d="M0 0 C4.45850936 0.79616239 5.90783917 1.93313458 8.5 5.625 C9.125 9.125 9.125 9.125 8.5 12.625 C5.90783917 16.31686542 4.45850936 17.45383761 0 18.25 C-4.45850936 17.45383761 -5.90783917 16.31686542 -8.5 12.625 C-9.125 9.125 -9.125 9.125 -8.5 5.625 C-5.90783917 1.93313458 -4.45850936 0.79616239 0 0 Z " fill="#FAFDFA" transform="translate(279.5,365.375)"/>
<path d="M0 0 C7.59 0 15.18 0 23 0 C23 3.3 23 6.6 23 10 C15.41 10 7.82 10 0 10 C0 6.7 0 3.4 0 0 Z " fill="#C5E1B3" transform="translate(596,383)"/>
<path d="M0 0 C1.98 0.495 1.98 0.495 4 1 C4 15.19 4 29.38 4 44 C2.02 44.495 2.02 44.495 0 45 C-1.53084425 43.46915575 -1.12715779 42.08796856 -1.12939453 39.95507812 C-1.13254669 39.09748901 -1.13569885 38.2398999 -1.13894653 37.35632324 C-1.1369223 36.42404907 -1.13489807 35.4917749 -1.1328125 34.53125 C-1.13376923 33.58060669 -1.13472595 32.62996338 -1.13571167 31.6505127 C-1.13639357 29.63631118 -1.13453862 27.62210748 -1.13037109 25.60791016 C-1.12502298 22.51329645 -1.13031577 19.4188279 -1.13671875 16.32421875 C-1.13605797 14.37239551 -1.13477681 12.42057236 -1.1328125 10.46875 C-1.13483673 9.53647583 -1.13686096 8.60420166 -1.13894653 7.64367676 C-1.13579437 6.78608765 -1.13264221 5.92849854 -1.12939453 5.04492188 C-1.12859894 4.28626831 -1.12780334 3.52761475 -1.12698364 2.74597168 C-1 1 -1 1 0 0 Z " fill="#65B948" transform="translate(396,72)"/>
<path d="M0 0 C0.33 0 0.66 0 1 0 C1 27.06 1 54.12 1 82 C2.65 82 4.3 82 6 82 C6 88.6 6 95.2 6 102 C4.35 102 2.7 102 1 102 C1 104.97 1 107.94 1 111 C0.67 111 0.34 111 0 111 C0 74.37 0 37.74 0 0 Z " fill="#90CA77" transform="translate(408,137)"/>
<path d="M0 0 C4.54355474 4.42705334 6.16653467 6.29086102 6.375 12.625 C6.31699229 18.67230382 5.12014324 22.54724103 1 27 C-4.42672271 31.23284372 -9.12361443 32.77699272 -16 32 C-19.5 30.5 -19.5 30.5 -22 29 C-22 28.67 -22 28.34 -22 28 C-21.13117187 27.97421875 -20.26234375 27.9484375 -19.3671875 27.921875 C-10.4329858 27.59295935 -10.4329858 27.59295935 -3 23 C0.77491688 18.71495922 2.14909177 16.3642359 2.1875 10.6875 C2.20876953 9.27017578 2.20876953 9.27017578 2.23046875 7.82421875 C1.98824335 4.85593118 1.24026607 2.69132835 0 0 Z " fill="#C3E0B2" transform="translate(643,321)"/>
<path d="M0 0 C9.24 0 18.48 0 28 0 C28 1.98 28 3.96 28 6 C18.76 6 9.52 6 0 6 C0 4.02 0 2.04 0 0 Z " fill="#C5E1B3" transform="translate(105,340)"/>
<path d="M0 0 C0.33 0 0.66 0 1 0 C1 2.64 1 5.28 1 8 C2.65 8 4.3 8 6 8 C6 10.64 6 13.28 6 16 C4.35 16 2.7 16 1 16 C1 51.64 1 87.28 1 124 C0.67 124 0.34 124 0 124 C0 83.08 0 42.16 0 0 Z " fill="#92CC7A" transform="translate(408,256)"/>
<path d="M0 0 C4.44396295 4.29583085 6.32355242 6.91625895 6.5 13.1875 C6.39976287 18.81330903 5.61430203 22.20940621 1.83984375 26.41015625 C-2.31010067 29.99620164 -6.1181418 31.76889461 -11.5625 32.4375 C-15.58965268 31.92495329 -18.36785088 30.77901181 -22 29 C-19.19624314 28.22153026 -16.58655265 27.8677253 -13.6875 27.6875 C-9.07222159 27.17131755 -5.50749819 26.13494009 -2 23 C2.25124656 17.55387644 2.80562687 11.70972094 2 5 C1.14939987 2.02019799 1.14939987 2.02019799 0 0 Z " fill="#C5E1B3" transform="translate(643,255)"/>
<path d="M0 0 C2.85939128 2.61074856 3.88123021 4.54507003 4.203125 8.48828125 C4.29566383 14.06374548 4.35576823 18.30192448 1 23 C-3.36681197 27.37904393 -7.54617006 30.27631764 -13.8125 30.375 C-18.94712382 30.2989315 -21.82562563 28.9039126 -26 26 C-25.34 25.67 -24.68 25.34 -24 25 C-23.01 25.33 -22.02 25.66 -21 26 C-14.71162674 26.53291299 -10.14027162 25.8360236 -5 22 C-1.38281702 18.51419171 -0.11364548 15.37260128 0.30078125 10.3671875 C0.31130047 6.89584376 0.21892385 3.46386183 0 0 Z " fill="#C6E1B4" transform="translate(645,191)"/>
<path d="M0 0 C7.26 0 14.52 0 22 0 C22 2.31 22 4.62 22 7 C14.74 7 7.48 7 0 7 C0 4.69 0 2.38 0 0 Z " fill="#C5E1B3" transform="translate(464,372)"/>
<path d="M0 0 C0.38160272 4.77003402 0.4609004 8.09465992 -1.75 12.4375 C-4.97485493 16.11025145 -4.97485493 16.11025145 -8 17 C-13.35714286 17.32142857 -13.35714286 17.32142857 -16 16 C-14.33536962 11.71357676 -11.20924163 8.91382783 -8 5.75 C-7.4534375 5.19570313 -6.906875 4.64140625 -6.34375 4.0703125 C-2.2533867 0 -2.2533867 0 0 0 Z " fill="#BDDDAA" transform="translate(639,326)"/>
<path d="M0 0 C1.23556641 0.01740234 1.23556641 0.01740234 2.49609375 0.03515625 C3.32238281 0.04417969 4.14867187 0.05320312 5 0.0625 C5.63808594 0.07410156 6.27617188 0.08570313 6.93359375 0.09765625 C6.93359375 3.09765625 6.93359375 3.09765625 5.77197266 4.6315918 C5.24007324 5.16051025 4.70817383 5.68942871 4.16015625 6.234375 C3.58265625 6.81123047 3.00515625 7.38808594 2.41015625 7.98242188 C1.79914062 8.57732422 1.188125 9.17222656 0.55859375 9.78515625 C-0.34632813 10.69491211 -0.34632813 10.69491211 -1.26953125 11.62304688 C-5.799507 16.09765625 -5.799507 16.09765625 -8.06640625 16.09765625 C-8.85375484 7.08688909 -8.85375484 7.08688909 -5.62890625 3.03515625 C-4.78328125 2.39578125 -3.93765625 1.75640625 -3.06640625 1.09765625 C-2.06640625 0.09765625 -2.06640625 0.09765625 0 0 Z " fill="#C0DFAE" transform="translate(625.06640625,319.90234375)"/>
<path d="M0 0 C0 3 0 3 -1.16162109 4.53393555 C-1.69352051 5.062854 -2.22541992 5.59177246 -2.7734375 6.13671875 C-3.3509375 6.71357422 -3.9284375 7.29042969 -4.5234375 7.88476562 C-5.13445313 8.47966797 -5.74546875 9.07457031 -6.375 9.6875 C-7.27992188 10.59725586 -7.27992188 10.59725586 -8.203125 11.52539062 C-12.73310075 16 -12.73310075 16 -15 16 C-16.04193852 7.63141444 -16.04193852 7.63141444 -13.72265625 4 C-9.30919032 -0.16326945 -5.91730922 -0.62287466 0 0 Z " fill="#C1DFAE" transform="translate(632,254)"/>
<path d="M0 0 C0.66 0.66 1.32 1.32 2 2 C-0.28356246 4.34138543 -2.57813374 6.67166982 -4.875 9 C-5.85146484 10.00160156 -5.85146484 10.00160156 -6.84765625 11.0234375 C-7.47285156 11.65507812 -8.09804688 12.28671875 -8.7421875 12.9375 C-9.3182373 13.52402344 -9.89428711 14.11054688 -10.48779297 14.71484375 C-12 16 -12 16 -14 16 C-14.76140684 8.38593156 -14.76140684 8.38593156 -12.95703125 5.1015625 C-8.85319631 0.16733281 -6.28997405 -0.3369629 0 0 Z " fill="#C1DFAE" transform="translate(631,188)"/>
<path d="M0 0 C1.65 0 3.3 0 5 0 C5 8.25 5 16.5 5 25 C3.35 25 1.7 25 0 25 C0 16.75 0 8.5 0 0 Z " fill="#C5E1B3" transform="translate(409,239)"/>
<path d="M0 0 C0.62376238 7.9529703 0.62376238 7.9529703 -1.75 11.9375 C-6.15652785 15.9768172 -9.00077621 16.23073938 -15 16 C-15 13 -15 13 -13.83837891 11.46606445 C-13.30647949 10.937146 -12.77458008 10.40822754 -12.2265625 9.86328125 C-11.6490625 9.28642578 -11.0715625 8.70957031 -10.4765625 8.11523438 C-9.86554687 7.52033203 -9.25453125 6.92542969 -8.625 6.3125 C-8.02171875 5.70599609 -7.4184375 5.09949219 -6.796875 4.47460938 C-2.26689925 0 -2.26689925 0 0 0 Z " fill="#C1DFAF" transform="translate(639,195)"/>
<path d="M0 0 C0.66 0.33 1.32 0.66 2 1 C2.48801743 8.19825708 2.48801743 8.19825708 0.25 11.875 C-3.25054644 15.18107164 -4.85834421 15.96194481 -9.75 16.125 C-10.8225 16.08375 -11.895 16.0425 -13 16 C-13 13 -13 13 -11.80664062 11.46606445 C-11.26201172 10.937146 -10.71738281 10.40822754 -10.15625 9.86328125 C-9.56972656 9.28642578 -8.98320313 8.70957031 -8.37890625 8.11523438 C-7.75886719 7.52033203 -7.13882813 6.92542969 -6.5 6.3125 C-5.87996094 5.70599609 -5.25992188 5.09949219 -4.62109375 4.47460938 C-3.08735293 2.97626257 -1.54451802 1.48723507 0 0 Z " fill="#C1DFAF" transform="translate(637,261)"/>
<path d="M0 0 C1.9375 1.625 1.9375 1.625 3 4 C2.875 7.125 2.875 7.125 2 10 C-1.23253796 12.15502531 -2.25150923 12.46856135 -6 12 C-7.8125 10.875 -7.8125 10.875 -9 9 C-9.39365568 5.85075452 -9.52854531 3.88090884 -7.875 1.125 C-5.08893958 -0.54663625 -3.18011138 -0.46376624 0 0 Z " fill="#C8E2B7" transform="translate(51,337)"/>
<path d="M0 0 C0.33 0 0.66 0 1 0 C1.76776074 3.40931683 2.12615022 6.55769623 2.12939453 10.04980469 C2.13254669 11.02721619 2.13569885 12.00462769 2.13894653 13.01165771 C2.1369223 14.05452942 2.13489807 15.09740112 2.1328125 16.171875 C2.13376923 17.25003479 2.13472595 18.32819458 2.13571167 19.43902588 C2.13639094 21.71179259 2.13455429 23.98456126 2.13037109 26.25732422 C2.12499843 29.75102031 2.13033533 33.24458905 2.13671875 36.73828125 C2.13605833 38.94531279 2.13477793 41.15234424 2.1328125 43.359375 C2.13483673 44.41034363 2.13686096 45.46131226 2.13894653 46.54412842 C2.13579437 47.50893127 2.13264221 48.47373413 2.12939453 49.46777344 C2.12820114 50.74754059 2.12820114 50.74754059 2.12698364 52.05316162 C2 54 2 54 1 55 C-0.66617115 55.04063832 -2.33388095 55.042721 -4 55 C-3.67 54.01 -3.34 53.02 -3 52 C-2.34 52 -1.68 52 -1 52 C-0.67 34.84 -0.34 17.68 0 0 Z " fill="#C4E2B6" transform="translate(334,176)"/>
<path d="M0 0 C1.65 0 3.3 0 5 0 C5 6.6 5 13.2 5 20 C3.35 20 1.7 20 0 20 C0 13.4 0 6.8 0 0 Z " fill="#99C77F" transform="translate(409,219)"/>
<path d="M0 0 C7.59 0 15.18 0 23 0 C23 3.3 23 6.6 23 10 C22.67 10 22.34 10 22 10 C22 8.02 22 6.04 22 4 C14.74 4 7.48 4 0 4 C0 2.68 0 1.36 0 0 Z " fill="#9AC881" transform="translate(596,383)"/>
<path d="M0 0 C3.08325358 -0.0582253 6.16636505 -0.09367134 9.25 -0.125 C10.55904297 -0.15013672 10.55904297 -0.15013672 11.89453125 -0.17578125 C12.73886719 -0.18222656 13.58320313 -0.18867188 14.453125 -0.1953125 C15.22817383 -0.20578613 16.00322266 -0.21625977 16.80175781 -0.22705078 C19 0 19 0 23 2 C16.07 2 9.14 2 2 2 C2 8.93 2 15.86 2 23 C1.67 23 1.34 23 1 23 C-0.23402862 18.22907044 -0.11265112 13.57530554 -0.0625 8.6875 C-0.05798828 7.85154297 -0.05347656 7.01558594 -0.04882812 6.15429688 C-0.03710548 4.10283351 -0.01917203 2.05140727 0 0 Z " fill="#E4F0DC" transform="translate(311,230)"/>
<path d="M0 0 C2.625 0.375 2.625 0.375 5 1 C5.625 3.375 5.625 3.375 6 6 C5.34 6.66 4.68 7.32 4 8 C1.375 7.625 1.375 7.625 -1 7 C-1.625 4.625 -1.625 4.625 -2 2 C-1.34 1.34 -0.68 0.68 0 0 Z " fill="#66BA48" transform="translate(233,22)"/>
<path d="M0 0 C1.65 0 3.3 0 5 0 C5 2.64 5 5.28 5 8 C3.35 8 1.7 8 0 8 C0 5.36 0 2.72 0 0 Z " fill="#9AC881" transform="translate(409,264)"/>
<path d="M0 0 C1.65 0 3.3 0 5 0 C5 2.64 5 5.28 5 8 C3.35 8 1.7 8 0 8 C0 5.36 0 2.72 0 0 Z " fill="#C5E1B3" transform="translate(409,256)"/>
<path d="M0 0 C1.65 0 3.3 0 5 0 C5 2.64 5 5.28 5 8 C3.35 8 1.7 8 0 8 C0 5.36 0 2.72 0 0 Z " fill="#99C77F" transform="translate(409,248)"/>
<path d="M0 0 C2.0625 0.4375 2.0625 0.4375 4 1 C3.67 2.65 3.34 4.3 3 6 C1.68 5.67 0.36 5.34 -1 5 C-1 1 -1 1 0 0 Z " fill="#77C15D" transform="translate(397,153)"/>
<path d="M0 0 C0.66 0.33 1.32 0.66 2 1 C-0.97 4.63 -3.94 8.26 -7 12 C-7.33 11.34 -7.66 10.68 -8 10 C-5.61820737 6.25718301 -3.25524265 3.02272532 0 0 Z " fill="#D2E8C7" transform="translate(580,247)"/>
<path d="M0 0 C0.8125 1.6875 0.8125 1.6875 1 4 C-1.4375 6.75 -1.4375 6.75 -4 9 C-2.25 2.25 -2.25 2.25 0 0 Z " fill="#B1D99D" transform="translate(669,365)"/>
</svg>
