<?xml version="1.0" encoding="UTF-8"?>
<svg version="1.1" xmlns="http://www.w3.org/2000/svg" width="643" height="401">
<path d="M0 0 C1.94668903 -0.00807831 1.94668903 -0.00807831 3.9327051 -0.01631981 C7.51497695 -0.03071999 11.09701766 -0.02654682 14.67930186 -0.019153 C18.55059672 -0.01441005 22.4218424 -0.0269412 26.29312134 -0.03717041 C33.86991396 -0.05434238 41.4466236 -0.05520166 49.02343062 -0.04995751 C55.18444902 -0.04591117 61.34544295 -0.04736487 67.50646019 -0.05270576 C68.38434098 -0.05345419 69.26222177 -0.05420261 70.16670501 -0.05497371 C71.95030843 -0.05650524 73.73391185 -0.05804359 75.51751526 -0.05958868 C92.23398818 -0.07330822 108.95041427 -0.06788013 125.66688611 -0.05640347 C140.94512231 -0.04647422 156.22323735 -0.05940739 171.50145487 -0.08333766 C187.20446266 -0.10774716 202.90741406 -0.11733182 218.61044043 -0.11068493 C227.42032023 -0.10719649 236.23010689 -0.10939981 245.03997231 -0.12693596 C252.54055043 -0.14168121 260.04096986 -0.14226323 267.54154495 -0.12486505 C271.36487159 -0.11637125 275.18791502 -0.11416541 279.01122665 -0.1295166 C283.16469481 -0.14598625 287.31748397 -0.13117406 291.47094727 -0.11352539 C292.66717565 -0.1231304 293.86340403 -0.1327354 295.09588176 -0.14263147 C308.53957117 -0.02546185 318.27346888 3.95163362 327.85954285 13.2665863 C338.59411262 24.69370896 340.2457738 37.73356342 340.16645813 52.87185669 C340.1690214 54.68680129 340.1690214 54.68680129 340.17163646 56.53841144 C340.17434342 59.86571088 340.1681609 63.19277062 340.15808034 66.52004087 C340.14939114 70.11974452 340.15236985 73.71944163 340.15388489 77.31915283 C340.1549303 83.54555679 340.14868978 89.77191863 340.13740921 95.998312 C340.12111037 105.00047081 340.11594173 114.00260938 340.11343323 123.00478134 C340.10906299 137.61248762 340.09577213 152.22017148 340.076828 166.8278656 C340.05845181 181.01243478 340.04430383 195.19699785 340.03581238 209.38157654 C340.03502421 210.69450665 340.03502421 210.69450665 340.03422011 212.0339606 C340.03160992 216.42530054 340.02908253 220.81664051 340.02659631 225.20798051 C340.00588471 261.60122952 339.97067751 297.99445304 339.9259491 334.38768005 C341.07184509 334.38244324 342.21774109 334.37720642 343.39836121 334.37181091 C347.63435592 334.35376288 351.87034721 334.34224878 356.10636902 334.33274841 C357.94263785 334.32770774 359.77890264 334.32087529 361.61515808 334.3122406 C364.24871311 334.30016333 366.88221526 334.29444924 369.51579285 334.2900238 C370.34183517 334.28486252 371.1678775 334.27970123 372.01895142 334.27438354 C373.98831277 334.27418801 375.95756523 334.32563854 377.9259491 334.38768005 C380.55194237 337.01367333 379.20015877 344.34504488 379.22111511 348.10350037 C379.23810449 350.21975428 379.28192915 352.33435136 379.32633972 354.45018005 C379.48707483 368.31401821 375.74190504 378.78242807 366.3400116 389.1337738 C356.9752127 397.92754838 346.24200691 400.54198933 333.86778736 400.51910782 C332.84115125 400.52116045 331.81451515 400.52321309 330.75676885 400.52532792 C327.29449902 400.53101134 323.83226881 400.52953902 320.36999512 400.52812195 C317.87160054 400.53070479 315.37320637 400.53371772 312.87481278 400.53712535 C306.71450132 400.54435925 300.55420235 400.54689841 294.39388715 400.5474544 C287.01660721 400.54836799 279.6393353 400.5550352 272.26205882 400.56180123 C254.4347544 400.57786131 236.60745083 400.58376376 218.78014047 400.58854998 C210.35115732 400.59088512 201.92217485 400.5944876 193.49319223 400.59824535 C164.65289644 400.61107859 135.81260102 400.62179977 106.97230244 400.62524796 C105.16197306 400.62546959 103.35164369 400.62569137 101.54131432 400.62591331 C99.72657481 400.62613395 97.9118353 400.62635443 96.09709579 400.62657475 C92.45630666 400.62701731 88.81551752 400.62746443 85.17472839 400.62791443 C83.82067257 400.62807852 83.82067257 400.62807852 82.43926209 400.62824592 C53.1430508 400.63187975 23.8468642 400.64781324 -5.44933763 400.67110479 C-36.40765569 400.69567293 -67.36595962 400.70941931 -98.32428771 400.71061587 C-101.71915011 400.71078734 -105.1140125 400.71100277 -108.50887489 400.71125031 C-109.34481359 400.71130607 -110.18075228 400.71136184 -111.04202245 400.7114193 C-124.52115484 400.71257213 -138.00026196 400.72361338 -151.4793858 400.73813736 C-165.01204549 400.75246759 -178.54467263 400.75575901 -192.07733782 400.74769738 C-200.1265093 400.74322527 -208.17557602 400.74716459 -216.22473384 400.76293589 C-222.21991838 400.77376725 -228.21498159 400.76909522 -234.21017049 400.75816402 C-236.64678485 400.75618818 -239.0834095 400.75937108 -241.52000936 400.76800838 C-244.81133142 400.77894436 -248.10210707 400.77172613 -251.39341259 400.75961685 C-252.83933118 400.77100964 -252.83933118 400.77100964 -254.31446025 400.78263259 C-255.18489112 400.77563448 -256.05532198 400.76863638 -256.95212954 400.76142621 C-258.08240289 400.76179251 -258.08240289 400.76179251 -259.23551003 400.76216622 C-261.0740509 400.38768005 -261.0740509 400.38768005 -263.0740509 397.38768005 C-263.3258999 395.31934881 -263.3258999 395.31934881 -263.3285265 392.88831329 C-263.33435869 391.96109042 -263.34019088 391.03386754 -263.34619981 390.078547 C-263.34242049 389.05823059 -263.33864116 388.03791417 -263.33474731 386.98667908 C-263.33857286 385.90409112 -263.34239841 384.82150317 -263.34633988 383.70610952 C-263.35670035 380.06020415 -263.35267194 376.41445536 -263.34870911 372.76853943 C-263.35305386 370.16215875 -263.35823621 367.55577934 -263.36419678 364.94940186 C-263.37696214 358.594035 -263.37873523 352.23871036 -263.37639651 345.88333285 C-263.37461541 340.7194278 -263.37635852 335.55553559 -263.38062096 330.39163208 C-263.38121615 329.65743399 -263.38181133 328.9232359 -263.38242456 328.16678938 C-263.38363627 326.67540618 -263.38485041 325.18402297 -263.38606694 323.69263977 C-263.39694934 309.69905662 -263.39477654 295.70549756 -263.38868209 281.71191305 C-263.38351108 268.90067796 -263.39477197 256.08951885 -263.41378031 243.2782988 C-263.43313565 230.13274787 -263.44141885 216.98723293 -263.43765706 203.84166765 C-263.43574166 196.45778433 -263.43826549 189.07396572 -263.4523716 181.69009399 C-263.46549637 174.74951262 -263.46305681 167.80908627 -263.44996071 160.86850548 C-263.44758375 158.31547177 -263.45036929 155.76242749 -263.45858383 153.2094059 C-263.46895839 149.73565065 -263.46102551 146.26241683 -263.44827271 142.78868103 C-263.45564699 141.76836462 -263.46302127 140.7480482 -263.47061902 139.69681311 C-263.46341248 138.76959023 -263.45620594 137.84236735 -263.44878101 136.88704681 C-263.44883603 136.08480509 -263.44889104 135.28256337 -263.44894773 134.4560113 C-262.96604443 131.79180099 -262.29000651 130.92965267 -260.0740509 129.38768005 C-257.82914287 129.01508456 -257.82914287 129.01508456 -255.1446352 129.01853657 C-254.12151055 129.01256342 -253.09838589 129.00659028 -252.04425746 129.00043613 C-250.91683908 129.00917465 -249.78942071 129.01791318 -248.62783813 129.0269165 C-247.43287757 129.02435323 -246.23791701 129.02178995 -245.00674552 129.01914901 C-241.68406721 129.01505314 -238.36191578 129.02446165 -235.03930104 129.03948319 C-231.45854318 129.05241267 -227.87780222 129.04805629 -224.29702759 129.04577637 C-218.09119607 129.04420167 -211.88545902 129.05363132 -205.67965126 129.07048988 C-196.70705958 129.0948488 -187.73451368 129.10268196 -178.76189252 129.10645386 C-164.20519349 129.11302323 -149.64854484 129.13299756 -135.09187317 129.16136169 C-120.94962313 129.1888897 -106.80738677 129.21012943 -92.66511536 129.22288513 C-91.35799355 129.22406739 -91.35799355 129.22406739 -90.02446524 129.22527353 C-85.65292842 129.22918858 -81.28139151 129.23297972 -76.90985453 129.23670924 C-40.63120859 129.26782028 -4.35265579 129.3231315 31.9259491 129.38768005 C31.9259491 111.23768005 31.9259491 93.08768005 31.9259491 74.38768005 C26.31852722 74.42248474 20.71110535 74.45728943 14.9337616 74.4931488 C11.38817831 74.50847158 7.84263566 74.52291299 4.29704285 74.53416443 C-1.33471622 74.55212047 -6.96632943 74.57339612 -12.59797668 74.61399841 C-17.13670071 74.64651751 -21.67526839 74.66451728 -26.21409988 74.67231178 C-27.94852791 74.67786874 -29.68294707 74.68871968 -31.41730881 74.70487022 C-33.84067749 74.72654592 -36.26339437 74.72965119 -38.68684387 74.72825623 C-39.77009445 74.74443497 -39.77009445 74.74443497 -40.87522888 74.76094055 C-42.87236023 74.7484436 -42.87236023 74.7484436 -46.0740509 74.38768005 C-49.37335655 69.43872159 -48.40664512 63.5175933 -48.38972473 57.72142029 C-48.38660545 55.48921482 -48.4098771 53.25838951 -48.43537903 51.02635193 C-48.50364131 35.95542893 -45.88457647 23.39653201 -35.2615509 12.07518005 C-25.07297 2.46769692 -13.63317409 -0.06811422 0 0 Z " fill="#66B948" transform="translate(263.0740509033203,0.6123199462890625)"/>
<path d="M0 0 C35.53416493 -0.04578308 71.06832469 -0.08102208 106.60251305 -0.10213066 C110.79815979 -0.10463206 114.99380647 -0.1072207 119.18945312 -0.10986328 C120.02472678 -0.1103879 120.86000043 -0.11091252 121.72058541 -0.11145304 C135.24316326 -0.12015438 148.76572411 -0.13592287 162.28829187 -0.15430559 C176.16488172 -0.17301218 190.04146266 -0.18411833 203.91806459 -0.18817699 C212.47986126 -0.19092047 221.04160984 -0.19958395 229.60339171 -0.21583293 C235.47544332 -0.22640917 241.34747008 -0.22959917 247.21953052 -0.22700275 C250.60681899 -0.22572246 253.99395576 -0.22877301 257.38124084 -0.23841095 C261.05692133 -0.24835718 264.73239583 -0.24596985 268.40808105 -0.24050903 C270.00732524 -0.24924756 270.00732524 -0.24924756 271.63887739 -0.25816262 C283.02210506 -0.21243472 292.26325566 2.21681037 300.6875 10.125 C306.73945345 16.43826405 311.12676194 24.16571776 311.12304783 33.0387373 C311.12503888 34.08624572 311.12702993 35.13375414 311.12908131 36.21300524 C311.12616847 37.36766026 311.12325563 38.52231528 311.12025452 39.71195984 C311.12153615 41.54727798 311.12153615 41.54727798 311.12284368 43.41967326 C311.124209 46.82198713 311.12107233 50.22424383 311.11606562 53.62655079 C311.1117561 57.29319899 311.1132079 60.95984535 311.1139679 64.62649536 C311.11449281 70.98125822 311.11134938 77.33601082 311.10573006 83.6907711 C311.09761069 92.87874157 311.09499939 102.06670707 311.09374207 111.25468073 C311.09155224 126.16075676 311.08489401 141.06682733 311.07543945 155.97290039 C311.06626356 170.45467095 311.05919505 184.93644002 311.05493164 199.41821289 C311.05466364 200.3196423 311.05439565 201.22107171 311.05411953 202.14981717 C311.05204016 209.1993543 311.05008322 216.24889147 311.04816496 223.29842865 C311.03872749 257.86562412 311.01861008 292.43280591 311 327 C238.4 327.33 165.8 327.66 91 328 C91 334.93 91 341.86 91 349 C89.82450185 360.43439108 86.78669622 369.26584504 78.2421875 377.24609375 C69.47435196 384.10455744 59.63360002 386.76263467 48.65625 385.79296875 C39.51666383 384.47698403 31.93751515 379.76764647 26.0625 372.6875 C21.23903888 365.94390807 17.87662415 357.85348304 17.87250805 349.53908539 C17.8695004 348.39734218 17.86649275 347.25559897 17.86339396 346.07925749 C17.86514433 344.81926829 17.86689471 343.55927909 17.86869812 342.2611084 C17.86699646 340.91342371 17.864847 339.56573953 17.86228687 338.2180562 C17.85768413 335.28246131 17.85627012 332.34688751 17.85725212 329.41128922 C17.85884288 324.63497334 17.85364697 319.85867844 17.84762573 315.08236694 C17.8395067 308.1464997 17.83456673 301.21063614 17.83133507 294.27476501 C17.82584004 283.30787609 17.80894329 272.3410183 17.78999329 261.37414551 C17.78363618 257.62233739 17.77732776 253.8705292 17.77101612 250.11872101 C17.76943236 249.18101965 17.7678486 248.24331829 17.76621684 247.27720174 C17.74827339 236.59854038 17.73205128 225.91987681 17.71704102 215.24121094 C17.71497721 213.77670135 17.71497721 213.77670135 17.71287171 212.28260571 C17.69095812 196.47310544 17.68018977 180.66361317 17.67267027 164.85410041 C17.66459362 148.62128828 17.64128385 132.38854471 17.6047166 116.15577173 C17.58271066 106.14504715 17.57302113 96.1344636 17.57921693 86.12371606 C17.58239637 79.25785291 17.57102942 72.39210998 17.54832252 65.52628404 C17.53567965 61.56744366 17.52945449 57.60887119 17.54073906 53.6500206 C17.55095276 50.02007535 17.54256599 46.39064873 17.5198761 42.76076442 C17.5125669 40.83741077 17.52476391 38.91401287 17.53783625 36.99068975 C17.44360858 26.87614036 15.30550394 18.2594487 9.0625 10.125 C8.41410156 9.26132812 7.76570313 8.39765625 7.09765625 7.5078125 C4.86958717 4.84408746 2.46772094 2.44101675 0 0 Z " fill="#FEFEFE" transform="translate(284,8)"/>
<path d="M0 0 C64.68 0 129.36 0 196 0 C196 49.17 196 98.34 196 149 C131.32 149 66.64 149 0 149 C-1.32 145.37 -2.64 141.74 -4 138 C-10.27871446 128.21688677 -17.86941638 121.55616119 -29 118 C-29.99 117.67 -30.98 117.34 -32 117 C-32 88.95 -32 60.9 -32 32 C-28.04 30.35 -24.08 28.7 -20 27 C-8.90649981 19.46210885 -5.34996803 12.83992328 0 0 Z " fill="#C4E0B2" transform="translate(93,191)"/>
<path d="M0 0 C87.12 0 174.24 0 264 0 C264 7.59 264 15.18 264 23 C195.69 23.33 127.38 23.66 57 24 C56.01 27.3 55.02 30.6 54 34 C49.93686163 42.95328722 44.03257805 49.55871801 34.875 53.3125 C33.25823396 53.89824638 31.63263273 54.46005407 30 55 C28.02 55.66 26.04 56.32 24 57 C24 88.02 24 119.04 24 151 C26.64 151.99 29.28 152.98 32 154 C42.7806288 158.43447376 50.34500823 165.19318165 55 176 C55.99 178.97 56.98 181.94 58 185 C125.98 185 193.96 185 264 185 C264.33 192.59 264.66 200.18 265 208 C177.55 208 90.1 208 0 208 C0 139.36 0 70.72 0 0 Z " fill="#FDFEFD" transform="translate(31,161)"/>
<path d="M0 0 C67.65359743 -0.04033135 67.65359743 -0.04033135 95.95507812 -0.04882812 C102.43237307 -0.05078581 108.909668 -0.05280624 115.38696289 -0.05493164 C116.19871697 -0.05519539 117.01047106 -0.05545914 117.84682375 -0.05573088 C130.92914453 -0.06007285 144.01146088 -0.06795261 157.09377903 -0.0771528 C170.53308867 -0.08652478 183.972396 -0.09206311 197.41170877 -0.09408849 C205.69554894 -0.09545637 213.9793766 -0.09976698 222.26321291 -0.10791647 C227.95403083 -0.1132277 233.64484234 -0.11479439 239.33566255 -0.11350138 C242.61238666 -0.1128648 245.88908463 -0.11435535 249.16580582 -0.11920547 C261.82815528 -0.13702059 274.3782634 -0.0665675 287 1 C287 6.28 287 11.56 287 17 C197.9 17.33 108.8 17.66 17 18 C17.33 90.6 17.66 163.2 18 238 C20.38350878 239.19175439 21.81195073 239.11864262 24.47167397 239.10793877 C25.89147212 239.1059749 25.89147212 239.1059749 27.33995306 239.10397136 C28.38700836 239.09744615 29.43406366 239.09092094 30.5128479 239.084198 C31.61963847 239.08137475 32.72642903 239.0785515 33.8667587 239.0756427 C37.60081702 239.06518683 41.33481411 239.04781858 45.06884766 239.03076172 C47.73593154 239.02233995 50.40301181 239.01437674 53.07009888 239.00721741 C57.33854371 238.99550735 61.60698533 238.98344673 65.87542272 238.96924853 C76.46459508 238.9344092 87.05368715 238.91830357 97.64291382 238.91360474 C98.4082687 238.9132349 99.17362358 238.91286507 99.96217103 238.91248403 C106.26671234 238.90950883 112.57125387 238.90733247 118.87579563 238.90558323 C124.55798537 238.90399594 130.24017426 238.90172624 135.92236328 238.8984375 C136.73258101 238.8979772 137.54279874 238.8975169 138.37756853 238.89704265 C151.49924318 238.88849412 164.62057589 238.84406116 177.74211963 238.78726016 C191.21206879 238.72985819 204.68161439 238.71429122 218.15166891 238.73666394 C226.46077394 238.74908133 234.76845455 238.72844973 243.07733516 238.6653678 C248.77490411 238.62516836 254.47158023 238.62535856 260.16919859 238.65716784 C263.45626689 238.67430721 266.74025189 238.66766233 270.02716064 238.62482262 C290.86888292 238.36948838 290.86888292 238.36948838 295.24024582 242.4275856 C297.27508494 245.22071654 298.60411863 247.85607214 300 251 C301.88252638 252.9250016 303.84198542 254.38148907 306 256 C306 256.33 306 256.66 306 257 C205.02 257 104.04 257 0 257 C0 172.19 0 87.38 0 0 Z " fill="#C3E0B0" transform="translate(8,137)"/>
<path d="M0 0 C83.82 0 167.64 0 254 0 C254 30.41031941 254 30.41031941 242.41015625 42.68359375 C233.92497582 50.68961105 223.46724523 52.15567975 212.28739929 52.12025452 C210.81091226 52.12153615 210.81091226 52.12153615 209.3045972 52.12284368 C206.00342069 52.12449195 202.70229489 52.11898775 199.40112305 52.11352539 C197.0358836 52.11324335 194.67064406 52.11340158 192.30540466 52.1139679 C185.88027817 52.11425522 179.45517029 52.10836894 173.03004813 52.10139394 C166.99687477 52.09530528 160.96369936 52.09477109 154.93052349 52.09374207 C142.98159223 52.09155409 131.03266779 52.0849009 119.08374023 52.07543945 C107.47729527 52.06625876 95.87085216 52.05918114 84.2644043 52.05493164 C83.54883898 52.05466892 82.83327365 52.05440619 82.09602454 52.05413551 C78.50620062 52.05283046 74.91637669 52.05156675 71.32655275 52.05032361 C41.55103047 52.03995892 11.77551586 52.02227311 -18 52 C-16.82739624 50.8411731 -16.82739624 50.8411731 -15.63110352 49.65893555 C-13.15367196 47.15529751 -11.03600787 44.63693306 -8.9375 41.8125 C-8.28652344 40.95269531 -7.63554687 40.09289062 -6.96484375 39.20703125 C1.39416655 25.56339814 -0.67779309 17.62262026 0 0 Z " fill="#C4E0B2" transform="translate(381,342)"/>
<path d="M0 0 C63.36 0 126.72 0 192 0 C192 2.31 192 4.62 192 7 C130.29 7 68.58 7 5 7 C4.34 9.64 3.68 12.28 3 15 C-1.91431742 26.0854111 -10.77818226 33.67105375 -22 38 C-24.475 38.495 -24.475 38.495 -27 39 C-27 67.05 -27 95.1 -27 124 C-24.03 124.66 -21.06 125.32 -18 126 C-6.96473897 131.27408214 0.73778026 140.69865979 5 152 C5 153.32 5 154.64 5 156 C66.71 156 128.42 156 192 156 C192 158.31 192 160.62 192 163 C167.14856379 163.11668673 142.29716849 163.20491628 117.44551373 163.25906086 C105.90702355 163.28486687 94.36870335 163.32006323 82.83032227 163.37719727 C72.77606703 163.42695879 62.72193487 163.45927356 52.66755992 163.47044247 C47.34142216 163.47697352 42.01563657 163.49237306 36.68961143 163.52865028 C31.68027555 163.56249518 26.67143811 163.57307629 21.66199875 163.56553841 C19.82007835 163.56691812 17.97814191 163.57691896 16.13632011 163.59602737 C13.62754802 163.62078649 11.12067521 163.61496928 8.61186218 163.60127258 C7.51021328 163.62311889 7.51021328 163.62311889 6.38630885 163.64540654 C4.35206127 163.61523914 4.35206127 163.61523914 1 163 C-1.3387939 160.0891195 -2.35295769 157.25804179 -3.3125 153.6875 C-6.03146674 145.20657785 -12.37280622 137.99067641 -20.234375 133.8125 C-24.39992498 131.91144364 -28.64588209 130.41508832 -33 129 C-34.87788672 127.12211328 -34.12008587 124.40834091 -34.12442017 121.91021729 C-34.12082489 121.03484314 -34.11722961 120.15946899 -34.11352539 119.25756836 C-34.11367142 118.3405867 -34.11381744 117.42360504 -34.1139679 116.47883606 C-34.1132684 113.43248164 -34.10547428 110.38618755 -34.09765625 107.33984375 C-34.0957922 105.23377007 -34.09436824 103.12769597 -34.09336853 101.0216217 C-34.08954231 95.46657117 -34.07971114 89.91154659 -34.06866455 84.35650635 C-34.05845267 78.6927526 -34.05387139 73.02899467 -34.04882812 67.36523438 C-34.03808896 56.24347815 -34.0210113 45.12174123 -34 34 C-30.04977922 32.29313944 -26.11926011 30.68100357 -22.0625 29.25 C-10.94661466 24.70259236 -6.53411302 16.67354714 -2 6 C-1.34 4.02 -0.68 2.04 0 0 Z " fill="#67BA49" transform="translate(88,184)"/>
<path d="M0 0 C8.59653023 7.30705069 15.85324271 15.0357647 18.15625 26.3828125 C18.50492647 31.7486763 18.43933839 37.06783126 18.34375 42.4453125 C18.281875 47.3746875 18.22 52.3040625 18.15625 57.3828125 C-1.31375 57.3828125 -20.78375 57.3828125 -40.84375 57.3828125 C-40.92625 52.6390625 -41.00875 47.8953125 -41.09375 43.0078125 C-41.13016602 41.5326416 -41.16658203 40.0574707 -41.20410156 38.53759766 C-41.30001304 27.08236417 -39.01095585 17.86661002 -30.94140625 9.3828125 C-25.74333875 4.41313109 -20.70961642 1.48170431 -13.84375 -0.6171875 C-13.23144531 -0.81441406 -12.61914062 -1.01164063 -11.98828125 -1.21484375 C-7.46555713 -2.0633694 -4.07326245 -2.31638826 0 0 Z " fill="#C4E0B2" transform="translate(263.84375,9.6171875)"/>
<path d="M0 0 C5.89342928 4.56835417 10.45047344 10.29282657 12.82421875 17.4140625 C13.81935427 27.21859446 11.79200698 35.09152604 5.57421875 42.7890625 C-0.08085382 48.80897846 -7.01941718 51.45102676 -15.17578125 51.8515625 C-22.79731678 51.76993963 -29.45746379 48.68588908 -35.16015625 43.66796875 C-40.52449716 37.70611462 -42.72479768 31.98219347 -42.61328125 24.0390625 C-42.60498291 23.28318848 -42.59668457 22.52731445 -42.58813477 21.74853516 C-42.34659627 13.80441138 -40.1650507 9.34825068 -34.73828125 3.6015625 C-25.52399339 -5.02332528 -10.85571698 -7.18363526 0 0 Z " fill="#65B947" transform="translate(234.17578125,221.5859375)"/>
<path d="M0 0 C68.97 0 137.94 0 209 0 C209 3.63 209 7.26 209 11 C140.03 11 71.06 11 0 11 C0 7.37 0 3.74 0 0 Z " fill="#C6E1B5" transform="translate(340,244)"/>
<path d="M0 0 C68.97 0 137.94 0 209 0 C209 3.63 209 7.26 209 11 C140.03 11 71.06 11 0 11 C0 7.37 0 3.74 0 0 Z " fill="#C7E2B6" transform="translate(340,215)"/>
<path d="M0 0 C66 0 132 0 200 0 C200 3.63 200 7.26 200 11 C134 11 68 11 0 11 C0 7.37 0 3.74 0 0 Z " fill="#C6E1B4" transform="translate(340,186)"/>
<path d="M0 0 C70.95 0 141.9 0 215 0 C215 3.3 215 6.6 215 10 C144.05 10 73.1 10 0 10 C0 6.7 0 3.4 0 0 Z " fill="#C5E1B3" transform="translate(341,100)"/>
<path d="M0 0 C68.31 0 136.62 0 207 0 C207 3.3 207 6.6 207 10 C138.69 10 70.38 10 0 10 C0 6.7 0 3.4 0 0 Z " fill="#C5E1B3" transform="translate(341,158)"/>
<path d="M0 0 C65.67 0 131.34 0 199 0 C199 3.3 199 6.6 199 10 C133.33 10 67.66 10 0 10 C0 6.7 0 3.4 0 0 Z " fill="#C5E1B3" transform="translate(341,129)"/>
<path d="M0 0 C2.97 0 5.94 0 9 0 C9 49.17 9 98.34 9 149 C6.03 149 3.06 149 0 149 C0 99.83 0 50.66 0 0 Z " fill="#99C77F" transform="translate(280,191)"/>
<path d="M0 0 C22.44 0 44.88 0 68 0 C68 5.61 68 11.22 68 17 C45.56 17 23.12 17 0 17 C0 11.39 0 5.78 0 0 Z " fill="#64B946" transform="translate(338,58)"/>
<path d="M0 0 C2.31243792 -0.02685412 4.6249627 -0.04632841 6.9375 -0.0625 C8.22527344 -0.07410156 9.51304687 -0.08570313 10.83984375 -0.09765625 C14 0 14 0 15 1 C15.09902902 3.07330397 15.12632326 5.15004048 15.12698364 7.22570801 C15.12854363 7.8833088 15.13010362 8.54090959 15.13171089 9.21843767 C15.13572266 11.43796513 15.13253058 13.65742507 15.12939453 15.87695312 C15.13074849 17.46166525 15.1325284 19.04637705 15.13470459 20.63108826 C15.13927952 24.94708204 15.13748912 29.26305203 15.1343255 33.57904625 C15.13180221 38.08561647 15.13413936 42.59218459 15.13571167 47.09875488 C15.13753346 54.66821663 15.13512682 62.23766864 15.13037109 69.80712891 C15.12492846 78.57138426 15.12669111 87.33561636 15.1321975 96.09987116 C15.13672838 103.61067482 15.1373793 111.12147147 15.13475883 118.63227606 C15.13319591 123.12428513 15.13300268 127.61628325 15.13629532 132.10829163 C15.13917366 136.33038998 15.13719902 140.55245821 15.13140106 144.7745533 C15.13007327 146.32863884 15.13046791 147.88272689 15.13266373 149.43681145 C15.13537448 151.54933977 15.13199506 153.66177001 15.12698364 155.77429199 C15.12660662 156.95934074 15.12622959 158.1443895 15.12584114 159.36534882 C15 162 15 162 14 163 C11.64686445 163.07271741 9.29166332 163.08370868 6.9375 163.0625 C5.64714844 163.05347656 4.35679687 163.04445313 3.02734375 163.03515625 C1.52880859 163.01775391 1.52880859 163.01775391 0 163 C0 160.69 0 158.38 0 156 C2.97 156 5.94 156 9 156 C9 106.83 9 57.66 9 7 C6.03 7 3.06 7 0 7 C0 4.69 0 2.38 0 0 Z " fill="#50A434" transform="translate(280,184)"/>
<path d="M0 0 C10.52535373 0.4872849 17.73029711 4.40269247 25 12 C32.97596948 21.56703075 33.45054873 33.8251242 33.1875 45.75 C33.16719727 47.52890625 33.16719727 47.52890625 33.14648438 49.34375 C33.1115777 52.22936866 33.05779064 55.11474892 33 58 C28.71 58 24.42 58 20 58 C19.97421875 55.87820312 19.9484375 53.75640625 19.921875 51.5703125 C19.88329987 49.48164434 19.83819047 47.39321032 19.79248047 45.3046875 C19.76451136 43.86958271 19.74317897 42.43433076 19.72900391 40.99902344 C19.63841189 32.33842667 19.12490901 24.82735222 15 17 C14.54238281 16.10925781 14.08476562 15.21851563 13.61328125 14.30078125 C10.310386 9.25221164 6.6716194 5.81541185 1.7578125 2.3125 C1.17773438 1.879375 0.59765625 1.44625 0 1 C0 0.67 0 0.34 0 0 Z " fill="#98C77E" transform="translate(262,9)"/>
<path d="M0 0 C5.91039556 4.76115198 5.91039556 4.76115198 6.63671875 9.1484375 C6.82523822 13.47788467 6.4957778 16.29258542 4.625 20.25 C1.22385272 23.91965891 -1.7409607 25.51328138 -6.6875 26.25 C-11.72335007 25.53059285 -15.27263917 23.43283123 -18.6875 19.6875 C-20.28899471 15.35404371 -20.53708796 11.36740715 -19.75 6.8125 C-18.10998019 3.63008061 -15.78590658 1.59836017 -12.9375 -0.5625 C-8.36163222 -1.8698908 -4.31624142 -1.86383152 0 0 Z " fill="#C3E0B1" transform="translate(225.75,233.1875)"/>
<path d="M0 0 C4.95 0 9.9 0 15 0 C15 7.59 15 15.18 15 23 C-52.65 23 -120.3 23 -190 23 C-190 22.67 -190 22.34 -190 22 C-127.3 22 -64.6 22 0 22 C0 14.74 0 7.48 0 0 Z " fill="#BDDEAC" transform="translate(280,161)"/>
<path d="M0 0 C14.52 0 29.04 0 44 0 C44 3.3 44 6.6 44 10 C29.48 10 14.96 10 0 10 C0 6.7 0 3.4 0 0 Z " fill="#C5E1B3" transform="translate(341,294)"/>
<path d="M0 0 C17.16 0 34.32 0 52 0 C52 2.64 52 5.28 52 8 C34.84 8 17.68 8 0 8 C0 5.36 0 2.72 0 0 Z " fill="#64B946" transform="translate(193,304)"/>
<path d="M0 0 C17.16 0 34.32 0 52 0 C52 2.64 52 5.28 52 8 C34.84 8 17.68 8 0 8 C0 5.36 0 2.72 0 0 Z " fill="#64B946" transform="translate(193,285)"/>
<path d="M0 0 C0.33 7.59 0.66 15.18 1 23 C-3.29 23 -7.58 23 -12 23 C-16.04654428 16.08715353 -15.26901851 8.74175497 -15 1 C-12.68753088 0.83290546 -10.37502385 0.66633538 -8.0625 0.5 C-6.77472656 0.4071875 -5.48695313 0.314375 -4.16015625 0.21875 C-1 0 -1 0 0 0 Z " fill="#C5E1B4" transform="translate(295,346)"/>
<path d="M0 0 C4.95 0 9.9 0 15 0 C15 5.28 15 10.56 15 16 C10.05 16 5.1 16 0 16 C0 10.72 0 5.44 0 0 Z " fill="#98C77E" transform="translate(280,138)"/>
<path d="M0 0 C4.5030245 -0.6795723 8.52215633 -0.93459581 13 0 C16.47600037 3.20100034 18.59780003 6.96611702 21 11 C22.58020285 12.82807781 24.208464 14.3764205 26 16 C16.9862237 15.66615643 9.52555919 11.13007075 3 5 C1.97407236 3.3491668 0.97056763 1.68397632 0 0 Z " fill="#98C77E" transform="translate(287,377)"/>
<path d="M0 0 C4.95 0 9.9 0 15 0 C15 2.31 15 4.62 15 7 C10.05 7 5.1 7 0 7 C0 4.69 0 2.38 0 0 Z " fill="#4DA331" transform="translate(280,154)"/>
<path d="M0 0 C2.29109597 -0.08075665 4.58299267 -0.13907731 6.875 -0.1875 C8.78925781 -0.23970703 8.78925781 -0.23970703 10.7421875 -0.29296875 C11.81726563 -0.19628906 12.89234375 -0.09960938 14 0 C16 3 16 3 16 6 C11.71 6 7.42 6 3 6 C2.01 4.02 1.02 2.04 0 0 Z " fill="#4DA331" transform="translate(283,370)"/>
</svg>
