<svg width="24" height="24" viewBox="0 0 24 24" fill="none" xmlns="http://www.w3.org/2000/svg">
<path d="M22.5 6.69999C22.2 5.79999 21.5 4.99999 20.6 4.79999C18.9 4.29999 12 4.29999 12 4.29999C12 4.29999 5.1 4.29999 3.4 4.79999C2.5 5.09999 1.7 5.79999 1.5 6.69999C1 8.39999 1 12 1 12C1 12 1 15.6 1.5 17.3C1.8 18.2 2.5 19 3.4 19.2C5.1 19.7 12 19.7 12 19.7C12 19.7 18.9 19.7 20.6 19.2C21.5 18.9 22.3 18.2 22.5 17.3C23 15.6 23 12 23 12C23 12 23 8.39999 22.5 6.69999ZM9.8 15.3V8.69999L15.5 12L9.8 15.3Z" fill="#0A0A0A"/>
</svg>
