<svg width="51" height="28" version="1.1" viewBox="0 0 51 28" xmlns="http://www.w3.org/2000/svg">
<path d="m14 29c8.2843 0 15-6.7157 15-15 0-8.2843-6.7157-15-15-15-8.2843 0-15 6.7157-15 15 0 8.2843 6.7157 15 15 15z" fill="#f0f0f0" stroke="#fff" stroke-width="2"/>
<g fill="#d80027">
<path d="m13.391 14h14.609c0-1.2637-0.1684-2.4878-0.4823-3.6522h-14.126z"/>
<path d="m13.391 6.6952h12.554c-0.857-1.3985-1.9528-2.6346-3.2304-3.6522h-9.3235z"/>
<path d="m14 28c3.2949 0 6.3233-1.1388 8.7148-3.0435h-17.43c2.3915 1.9047 5.4199 3.0435 8.7147 3.0435z"/>
<path d="m2.053 21.304h23.89c0.688-1.1226 1.2216-2.3498 1.5725-3.6522h-27.035c0.35093 1.3024 0.88451 2.5296 1.5725 3.6522z"/>
</g>
<path d="m6.4851 2.1863h1.2758l-1.1867 0.86215 0.4533 1.395-1.1867-0.86215-1.1867 0.86215 0.39157-1.2052c-1.0449 0.87035-1.9607 1.8901-2.7154 3.0262h0.40879l-0.7554 0.54879c-0.11768 0.19633-0.23056 0.39577-0.33873 0.59817l0.36072 1.1102-0.67299-0.4889c-0.16728 0.3544-0.3203 0.7168-0.45784 1.0868l0.39741 1.2232h1.4668l-1.1867 0.8622 0.45331 1.395-1.1867-0.8621-0.71082 0.5164c-0.07115 0.5719-0.10823 1.1545-0.10823 1.7457h14v-14c-2.7657 0-5.3438 0.80227-7.5149 2.1863zm0.54239 10.414-1.1867-0.8621-1.1867 0.8621 0.45331-1.395-1.1867-0.8622h1.4668l0.45325-1.395 0.45325 1.395h1.4668l-1.1867 0.8622zm-0.4533-5.4733 0.4533 1.395-1.1867-0.86211-1.1867 0.86211 0.45331-1.395-1.1867-0.86215h1.4668l0.45325-1.395 0.45325 1.395h1.4668zm5.475 5.4733-1.1867-0.8621-1.1866 0.8621 0.4533-1.395-1.1868-0.8622h1.4669l0.4532-1.395 0.4533 1.395h1.4668l-1.1867 0.8622zm-0.4533-5.4733 0.4533 1.395-1.1867-0.86211-1.1866 0.86211 0.4533-1.395-1.1868-0.86215h1.4669l0.4532-1.395 0.4533 1.395h1.4668zm0-4.0783 0.4533 1.395-1.1867-0.86215-1.1866 0.86215 0.4533-1.395-1.1868-0.86215h1.4669l0.4532-1.395 0.4533 1.395h1.4668z" fill="#0052b4"/>
<path d="m37 29c8.2843 0 15-6.7157 15-15 0-8.2843-6.7157-15-15-15s-15 6.7157-15 15c0 8.2843 6.7157 15 15 15z" fill="#0052b4" stroke="#fff" stroke-width="2"/>
<g fill="#ffda44">
<path d="m36.998 5.4766 0.4533 1.395h1.4667l-1.1866 0.86214 0.4533 1.3951-1.1867-0.8622-1.1867 0.8622 0.4533-1.3951-1.1867-0.86214h1.4668z"/>
<path d="m30.973 7.9728 1.3071 0.66592 1.0371-1.0371-0.2295 1.4486 1.307 0.666-1.4488 0.2294-0.2294 1.4488-0.666-1.307-1.4486 0.2296 1.0371-1.0372z"/>
<path d="m28.477 13.998 1.395-0.4533v-1.4668l0.8621 1.1867 1.3951-0.4533-0.8623 1.1867 0.8623 1.1867-1.3951-0.4533-0.8621 1.1867v-1.4668z"/>
<path d="m30.973 20.023 0.666-1.307-1.0371-1.0371 1.4487 0.2295 0.6658-1.3069 0.2295 1.4487 1.4487 0.2295-1.3068 0.6659 0.2294 1.4487-1.0371-1.0372z"/>
<path d="m36.998 22.519-0.4534-1.3951h-1.4667l1.1867-0.8621-0.4533-1.3949 1.1867 0.8621 1.1867-0.8621-0.4533 1.3949 1.1866 0.8621h-1.4667z"/>
<path d="m43.023 20.023-1.307-0.6658-1.0372 1.0371 0.2295-1.4488-1.3068-0.6658 1.4486-0.2295 0.2295-1.4487 0.6659 1.3069 1.4486-0.2295-1.0371 1.0372z"/>
<path d="m45.519 13.998-1.3951 0.4533v1.4668l-0.8621-1.1867-1.3949 0.4533 0.8621-1.1867-0.8621-1.1867 1.395 0.4533 0.862-1.1867v1.4669z"/>
<path d="m43.023 7.9727-0.6659 1.3071 1.0371 1.0371-1.4488-0.2296-0.6658 1.307-0.2295-1.4487-1.4486-0.2295 1.3068-0.6659-0.2295-1.4486 1.0373 1.0371z"/>
</g>
</svg>
