<?xml version="1.0" encoding="UTF-8"?>
<svg version="1.1" xmlns="http://www.w3.org/2000/svg" width="250" height="30">
<path d="M0 0 C82.5 0 165 0 250 0 C246.73218358 2.17854428 243.91439446 3.10035818 240.16796875 4.27490234 C239.47628601 4.49310135 238.78460327 4.71130035 238.07196045 4.93611145 C235.77871701 5.65785939 233.48326801 6.37226372 231.1875 7.0859375 C229.57815273 7.5889906 227.96885999 8.09221815 226.35961914 8.59561157 C222.97452502 9.65309804 219.58823347 10.70664574 216.20117188 11.7578125 C211.91457825 13.088755 207.63192986 14.43191366 203.3502655 15.77861595 C200.01786458 16.82465217 196.6829411 17.86246358 193.34732056 18.89818192 C191.77122495 19.38887178 190.19596928 19.88226983 188.62167358 20.37870407 C173.68325717 25.08224285 157.6796484 29.98233376 141.88916016 30.16113281 C141.18707428 30.17074036 140.4849884 30.1803479 139.7616272 30.19024658 C139.02818085 30.19449646 138.2947345 30.19874634 137.5390625 30.203125 C136.7496225 30.20882507 135.9601825 30.21452515 135.14682007 30.22039795 C133.48119418 30.22978961 131.8155502 30.23635852 130.14990234 30.24023438 C127.66598728 30.24984147 125.18293691 30.28087916 122.69921875 30.3125 C92.98440161 30.51796497 64.95753427 20.3036335 36.7824707 11.921875 C32.62579856 10.68600767 28.46812634 9.45351396 24.31054688 8.22070312 C16.20607037 5.81703035 8.10267847 3.40972692 0 1 C0 0.67 0 0.34 0 0 Z " fill="#FFFFFF" transform="translate(0,0)"/>
</svg>
