<svg width="80" height="24" fill="none" version="1.1" viewBox="0 0 80 24" xmlns="http://www.w3.org/2000/svg">
<path d="m25.658 0c-3.6667-2.9606e-16 -6.4645 1.0263-8.3926 3.0781-1.9177 2.0412-2.877 5.0024-2.877 8.8828 0 3.923 0.96438 6.909 2.8926 8.9609 1.9387 2.0518 4.7211 3.0781 8.3457 3.0781 3.6773 0 6.4699-1.0213 8.377-3.0625 1.4989-1.6043 2.4057-3.7918 2.7266-6.5586 0.33307 2.7038 1.2522 4.8715 2.7637 6.4961 1.9493 2.0837 4.7042 3.125 8.2656 3.125 3.2453 0 6.2218-0.46684 8.9297-1.4023v-12.566h-9.9727v4.8633h4.125v3.6523c-0.7797 0.1807-1.6332 0.26953-2.5605 0.26953-1.6963 0-2.9961-0.56758-3.9023-1.7051-0.8956-1.1482-1.3438-2.8128-1.3438-4.9922 0-2.2219 0.49583-3.9284 1.4863-5.1191 1.001-1.2013 2.4116-1.8008 4.2344-1.8008 1.9914-1e-7 3.8196 0.41491 5.4844 1.2441l1.9766-4.9453c-0.9588-0.42525-2.0868-0.77437-3.3828-1.0508-1.2855-0.27641-2.6554-0.41602-4.1094-0.41602-3.8353 0-6.8169 1.0482-8.9453 3.1426-1.671 1.6443-2.6839 3.8055-3.043 6.4785-0.31356-2.7967-1.2166-5.0013-2.7168-6.6074-1.8966-2.0306-4.684-3.0449-8.3613-3.0449zm42.561 0c-3.6667-2.9606e-16 -6.4644 1.0263-8.3926 3.0781-1.9176 2.0412-2.875 5.0024-2.875 8.8828 0 3.923 0.96242 6.909 2.8906 8.9609 1.9388 2.0518 4.7211 3.0781 8.3457 3.0781 3.6773 0 6.4699-1.0213 8.377-3.0625s2.8594-5.0223 2.8594-8.9453c0-3.9335-0.94715-6.9167-2.8438-8.9473-1.8966-2.0306-4.684-3.0449-8.3613-3.0449zm-68.219 0.36719v23.314h15.141v-5.0879h-8.8984v-18.227h-6.2422zm25.658 4.7988c1.5384 0 2.6917 0.5595 3.4609 1.6758 0.7797 1.1056 1.1699 2.8222 1.1699 5.1504 0 2.3176-0.3851 4.024-1.1543 5.1191-0.7586 1.095-1.9273 1.6426-3.5078 1.6426-3.1083 0-4.6621-2.254-4.6621-6.7617 0-4.5501 1.5641-6.8262 4.6934-6.8262zm42.561 0c1.5384 0 2.6917 0.5595 3.4609 1.6758 0.7797 1.1056 1.1699 2.8222 1.1699 5.1504 0 2.3176-0.3851 4.024-1.1543 5.1191-0.7586 1.095-1.9273 1.6426-3.5078 1.6426-3.1083 0-4.6621-2.254-4.6621-6.7617 0-4.5501 1.5641-6.8262 4.6934-6.8262z" fill="#000"/>
</svg>
