<svg width="192" height="96" fill="none" version="1.1" viewBox="0 0 192 96" xmlns="http://www.w3.org/2000/svg">
<path d="m156 47.988c0 5.9271-1.4408 10.432-4.3221 13.516s-7.1 4.6259-12.656 4.6259c-5.4763 0-9.6789-1.55-12.608-4.65-2.9132-3.1001-4.3699-7.6135-4.3699-13.541 0-5.8627 1.4488-10.336 4.346-13.42 2.9132-3.1 7.1399-4.65 12.68-4.65 5.5559 0 9.7665 1.534 12.632 4.6018 2.8655 3.068 4.2982 7.5733 4.2982 13.516zm-24.023 0c0 6.8105 2.348 10.216 7.0442 10.216 2.3879 0 4.155-0.8272 5.3012-2.4816 1.1622-1.6545 1.7432-4.2325 1.7432-7.7341 0-3.5176-0.58909-6.1117-1.7671-7.7821-1.1622-1.6866-2.9052-2.5298-5.2295-2.5298-4.7279 0-7.092 3.4374-7.092 10.312zm-25.393-2.9628h15.068v18.985c-4.0912 1.4134-8.5883 2.1202-13.492 2.1202-5.3808 0-9.5436-1.5742-12.489-4.7223-2.9291-3.1482-4.3937-7.6375-4.3937-13.468 0-5.686 1.6079-10.111 4.8236-13.275s7.7209-4.7464 13.516-4.7464c2.1968 0 4.2664 0.20882 6.2086 0.62643 1.9581 0.41762 3.6614 0.94767 5.11 1.5902l-2.9848 7.4689c-2.5153-1.2528-5.2773-1.8792-8.286-1.8792-2.754 0-4.8872 0.90753-6.3995 2.7226-1.4965 1.799-2.2447 4.377-2.2447 7.7339 0 3.2928 0.67657 5.8065 2.0297 7.5413 1.3691 1.7186 3.3352 2.578 5.8981 2.578 1.401 0 2.6904-0.13658 3.8684-0.40959v-5.5174h-6.2323zm-14.888 2.9628c0 5.9271-1.4408 10.432-4.3221 13.516s-7.1 4.6259-12.656 4.6259c-5.4763 0-9.6789-1.55-12.608-4.65-2.9132-3.1001-4.3699-7.6135-4.3699-13.541 0-5.8627 1.4486-10.336 4.346-13.42 2.9131-3.1 7.1397-4.65 12.68-4.65 5.5559 0 9.7665 1.534 12.632 4.6018 2.8655 3.068 4.2982 7.5733 4.2982 13.516zm-24.023 0c0 6.8105 2.348 10.216 7.0442 10.216 2.3879 0 4.155-0.8272 5.3012-2.4816 1.1622-1.6545 1.7432-4.2325 1.7432-7.7341 0-3.5176-0.58908-6.1117-1.7671-7.7821-1.1622-1.6866-2.9052-2.5298-5.2295-2.5298-4.7279 0-7.092 3.4374-7.092 10.312zm-31.674 17.66v-35.224h9.4321v27.538h13.444v7.6859z" fill="#ffffff"/>
</svg>
