<svg xmlns="http://www.w3.org/2000/svg" width="544.71" height="85.8" viewBox="0 0 544.71 85.8"><title>Computan Logo</title><circle cx="42.9" cy="42.9" r="42.9" style="fill:#f3b760"/><path d="M44.47,21.37A24.07,24.07,0,1,1,20.4,45.44,24.09,24.09,0,0,1,44.47,21.37m0-1a25,25,0,1,0,25,25,25,25,0,0,0-25-25Z" style="fill:#262626"/><path d="M18.79,50.58a12.58,12.58,0,0,1-5-1.93c-2.19-1.65-3.32-3.49-2.25-6.87,1-3.05,3.21-4.23,5.76-5.08a24.43,24.43,0,0,1,2.94-.64c.34-.07.66,0,.77.42-.07.44.24,1-.39,1.28a9,9,0,0,0-4.86,2.54,2.36,2.36,0,0,0-.35,2.52,5.52,5.52,0,0,0,3.46,3.71,15.49,15.49,0,0,0,4.22,1.34,20.67,20.67,0,0,0,10,.25c-.11-.64-.27-1.28-.36-1.93s-.15-1.53-.39-2.26a8.27,8.27,0,0,0-.43-2.37c.19-.93-.22-1.81-.17-2.73a15.84,15.84,0,0,1-.2-2.39,21,21,0,0,1-.2-3.45V24.3c.27-2.58.48-5.18.81-7.75a12.81,12.81,0,0,1,4.13-8.09c1.84-1.67,4.87-1.53,7.12,0a20,20,0,0,1,4.38,4.78,56.12,56.12,0,0,1,4.05,6,7.57,7.57,0,0,1,.84,2.09c-.31-.1-.49.31-.79.21a2.88,2.88,0,0,1-.63-.94c-2-3.29-4.23-6.37-7.62-8.16-1.87-1-3.84-1.27-5.62.22a8.35,8.35,0,0,0-2.12,3.22,21.93,21.93,0,0,0-1.79,6.78c-.41.36,0,.87-.2,1.28a12.47,12.47,0,0,0-.37,3,32.14,32.14,0,0,0-.2,3.4v5.3a24.33,24.33,0,0,0,.14,4,3.22,3.22,0,0,1,.06.93,16.67,16.67,0,0,0,.4,3,5.29,5.29,0,0,0,.43,2.19c-.21.65.22,1.22.19,1.86,0,.38.33.5.65.44,2.41-.48,4.85-.76,7.25-1.35a19.87,19.87,0,0,1,2.76-.57,57.94,57.94,0,0,0,8.23-2.34,15.6,15.6,0,0,0,3.52-1A49.38,49.38,0,0,0,61.63,41a17.19,17.19,0,0,0,3.22-1.22A8.39,8.39,0,0,0,66,39.26a14.55,14.55,0,0,0,3.61-1.71c1.08-.12,1.89-1,3-1.19a1.16,1.16,0,0,1-1.06,1.18,3.49,3.49,0,0,0-1.7.86,31.09,31.09,0,0,0-3.41,1.72c-2,1-4,1.94-6,2.79-.23.1-.52.15-.64.45a22.19,22.19,0,0,0-3.72,1.37,14.32,14.32,0,0,0-2.84,1.18A18.06,18.06,0,0,0,49.73,47a21.7,21.7,0,0,0-3.9,1.28c-2,.34-3.95,1-5.94,1.36a27.8,27.8,0,0,1-4.11.7c-.77,0-.57.38-.45.82a14.65,14.65,0,0,0,.6,2.64c.09.94.44,1.83.6,2.76s.32,1.63.6,2.41A29.08,29.08,0,0,0,38,62.65c.08.31.07.61.16.9-.26.12-.54,0-.8.08-.64-1.9-1.34-3.76-1.9-5.69-.09-.31.12-.81-.34-1-.11-1.14-.62-2.17-.78-3.29a24.59,24.59,0,0,1-.59-2.43c-.09-.47-.23-.51-.65-.48-1.94.13-3.87.31-5.82.28-1.09,0-2.18-.09-3.27,0a12.63,12.63,0,0,1-2.88-.21h-.82a1.15,1.15,0,0,0-.45,0c-.16-.42-.51-.2-.78-.25Z" style="fill:#262626;fill-rule:evenodd"/><path d="M37.33,63.61h.8a32.2,32.2,0,0,0,7-1A88.18,88.18,0,0,0,56,59.44a31.59,31.59,0,0,0,5.15-1.84,1.6,1.6,0,0,1,.63-.17,8.56,8.56,0,0,0,2.27-1,7.23,7.23,0,0,0,2.23-.79,46.19,46.19,0,0,0,4.93-2.19L74.69,52c-1.06,1.39-2.53,1.93-3.68,2.88a2.19,2.19,0,0,0-1.24.62c-1.3.34-2.38,1.18-3.64,1.64s-2.53,1-3.79,1.53c-4.73,1.73-9.53,3.25-14.39,4.61-1.88.53-3.81.82-5.68,1.37a24.09,24.09,0,0,0-2.91.56c-.79.14-.79.14-.24,1.23-.09.54.28,1,.22,1.55a.21.21,0,0,1-.28-.08,3.31,3.31,0,0,0-.43-1.26c-.61-1.27-1-1.46-2.36-1.16-1,.22-2.06.18-3.09.35H27.43c-1,.15-2-.3-3.06-.2a36.31,36.31,0,0,1-8.13-2c-1.72-.7-3.37-4.19-1.82-6.59a8.91,8.91,0,0,1,3.65-3.14c.44-.23.56-.12.73.21s.43.71,0,.91A2.46,2.46,0,0,0,17,57.68a4.76,4.76,0,0,0,2.57,3.73,6.05,6.05,0,0,0,2.58,1,9.13,9.13,0,0,0,3.75.77c.4.46.91.16,1.38.2.69.48,1.47.11,2.2.23a.29.29,0,0,1,.29.08,5.66,5.66,0,0,0,1.74.12h4.89C36.72,63.7,37.11,64,37.33,63.61Z" style="fill:#262626;fill-rule:evenodd"/><path d="M141.61,17.33a29.31,29.31,0,0,1,17.84,6.08,1.93,1.93,0,0,1,.31,2.77,1.85,1.85,0,0,1-2.68.39,25.14,25.14,0,0,0-15.47-5.37,24.51,24.51,0,0,0-24.87,24.31c0,13.19,11.06,24,24.87,24a23.45,23.45,0,0,0,15.31-5.37,1.93,1.93,0,0,1,2.77.48,1.85,1.85,0,0,1-.24,2.76,29.25,29.25,0,0,1-17.84,6c-15.87,0-28.73-12.47-28.73-27.87C112.88,29.81,125.74,17.41,141.61,17.33Z" style="fill:#fff"/><path d="M198.83,17.33c14.77,0,26.37,12.56,26.45,28-.08,15.47-11.68,28-26.45,28s-26.6-12.55-26.68-28C172.23,29.89,183.92,17.33,198.83,17.33Zm0,52.18c12.16,0,22.42-10.65,22.5-24.15-.08-13.66-10.34-24.08-22.5-24.08C186.28,21.28,176,31.7,176,45.36,176,58.86,186.28,69.51,198.83,69.51Z" style="fill:#fff"/><path d="M281.16,26,263.48,50.57a1.83,1.83,0,0,1-1.58.87h-.16a1.77,1.77,0,0,1-1.65-.87L242.4,26.1V71.49a1.93,1.93,0,0,1-3.86,0V20.33a1.79,1.79,0,0,1,.79-1.5c0-.07.07-.07.15-.15a2,2,0,0,1,2.69.47l19.65,27.23L281.4,19.15a2,2,0,0,1,2.68-.47,3.57,3.57,0,0,1,.56.63,2.66,2.66,0,0,1,.31,1V71.49a1.92,1.92,0,0,1-1.89,1.89,1.87,1.87,0,0,1-1.9-1.89Z" style="fill:#fff"/><path d="M301.21,20a1.92,1.92,0,0,1,1.89-1.9h15.63a15.75,15.75,0,0,1,0,31.5l-13.65.16V71.49a1.94,1.94,0,0,1-2,1.89,1.92,1.92,0,0,1-1.89-1.89Zm17.52,25.89a12.08,12.08,0,0,0,11.92-12A12,12,0,0,0,318.73,22H305.08V45.91Z" style="fill:#fff"/><path d="M347.3,20a1.94,1.94,0,0,1,3.87,0V51a18.47,18.47,0,1,0,36.94,0V20A1.94,1.94,0,0,1,392,20V51a22.34,22.34,0,1,1-44.68,0Z" style="fill:#fff"/><path d="M423.39,22H406.74a1.94,1.94,0,0,1,0-3.87h37.1a1.94,1.94,0,0,1,0,3.87H427.18v49.5a1.9,1.9,0,0,1-3.79,0Z" style="fill:#fff"/><path d="M483,59.09H457.81l-4.9,13a1.93,1.93,0,0,1-1.81,1.26c-.16,0-.48-.08-.71-.08a2,2,0,0,1-1.11-2.53l19.18-51.23a2.12,2.12,0,0,1,1.9-1.18,1.93,1.93,0,0,1,1.89,1.18l19.19,51.23a2,2,0,0,1-1,2.53c-.32,0-.47.08-.71.08a2,2,0,0,1-1.82-1.26Zm-23.76-3.87h22.34L470.44,25.54Z" style="fill:#fff"/><path d="M507.77,26.25V71.49a1.9,1.9,0,0,1-3.79,0V20.81a1.9,1.9,0,0,1,.71-2.13,2,2,0,0,1,2.69.47l33.47,46.41v-45a1.93,1.93,0,0,1,3.86,0V71.49a1.93,1.93,0,0,1-2,1.89,1.84,1.84,0,0,1-1.5-.71c-.08-.08-.24-.16-.32-.32Z" style="fill:#fff"/></svg>