<svg width="24" height="24" viewBox="0 0 24 24" fill="none" xmlns="http://www.w3.org/2000/svg">
<path d="M5.34859 18.3C5.73859 18.69 5.72859 19.33 5.33859 19.71C4.94859 20.1 4.30859 20.09 3.92859 19.7C0.0185938 15.73 0.0185938 9.26999 3.92859 5.29999C4.31859 4.90999 4.94859 4.89999 5.33859 5.28999C5.72859 5.67999 5.73859 6.30999 5.34859 6.69999C2.20859 9.89999 2.20859 15.1 5.34859 18.3ZM20.0686 5.29999C19.6786 4.90999 19.0486 4.89999 18.6586 5.28999C18.2686 5.67999 18.2586 6.30999 18.6486 6.69999C21.7886 9.89999 21.7886 15.1 18.6486 18.3C18.2586 18.69 18.2686 19.33 18.6586 19.71C19.0486 20.1 19.6886 20.09 20.0686 19.7C23.9686 15.72 23.9686 9.26999 20.0686 5.29999ZM8.20859 8.20999C7.81859 7.81999 7.18859 7.80999 6.79859 8.19999C4.40859 10.54 4.42859 14.39 6.78859 16.79C7.17859 17.18 7.80859 17.19 8.19859 16.8C8.58859 16.41 8.59859 15.78 8.20859 15.39C6.59859 13.75 6.61859 11.18 8.19859 9.62999C8.58859 9.23999 8.59859 8.60999 8.20859 8.21999V8.20999ZM17.1986 8.19999C16.8086 7.80999 16.1686 7.81999 15.7886 8.20999C15.3986 8.59999 15.4086 9.23999 15.7986 9.61999C17.3686 11.16 17.3886 13.74 15.7886 15.38C15.3986 15.77 15.4086 16.41 15.7986 16.79C16.1886 17.18 16.8286 17.17 17.2086 16.78C19.5586 14.38 19.5786 10.54 17.1986 8.18999V8.19999ZM15.1986 12.5C15.1986 14.27 13.7786 15.74 11.9986 15.74C10.2186 15.74 8.79859 14.27 8.79859 12.5C8.79859 10.73 10.2186 9.25999 11.9986 9.25999C13.7786 9.25999 15.1986 10.73 15.1986 12.5ZM13.1986 12.5C13.1986 11.8 12.6486 11.26 11.9986 11.26C11.3486 11.26 10.7986 11.8 10.7986 12.5C10.7986 13.2 11.3486 13.74 11.9986 13.74C12.6486 13.74 13.1986 13.2 13.1986 12.5Z" fill="#0A0A0A"/>
</svg>
